<svg xmlns="http://www.w3.org/2000/svg" viewBox="0 0 750 500"><g id="freepik--background-simple--inject-2"><path d="M695,249.57l-1.75-2.89c-14.76-24.32-41.45-39-69.58-37.2A73.79,73.79,0,0,0,612.93,211c-25.58,5.47-47.84,24.82-57.07,49.59-5.42,14.57-6.94,31.35-17.24,42.91-13.4,15.05-36.15,15.53-56.15,14.9s-42.77-.09-56.1,15c-8.35,9.46-11,22.92-10.34,35.6,1.79,33.55,25.17,63.55,54.9,78.46s64.75,16.25,97.29,9.69c45.59-9.19,88.94-34.42,115-73.4S715.88,291.64,695,249.57Z" style="fill:#f5f5f5"></path><circle cx="99.9" cy="99.83" r="47.2" transform="translate(-30.6 45.83) rotate(-22.5)" style="fill:#f5f5f5"></circle></g><g id="freepik--Plant--inject-2"><path d="M111.35,447.26s-4.23-29.05-3.87-45.95,0-35.91,0-35.91h1.94s-1.32,33.54.12,53.78,5.21,28.08,5.21,28.08h-3.38" style="fill:#263238"></path><path d="M123.94,332.71a5.21,5.21,0,0,0-1.78-2.6c-1.23-.78-2.85-.45-4.23,0-5.88,2.08-11.1,13.05-13.48,18.82l7.81,26.32C126.36,362.2,128.8,345,123.94,332.71Z" style="fill:#455a64"></path><path d="M121.71,331.18a1.55,1.55,0,0,1-.12.34c-.1.25-.22.57-.38,1-.34.83-.82,2-1.4,3.53-1.15,3-2.61,7.16-3.92,11.87s-2.2,9.05-2.76,12.2c-.28,1.58-.49,2.86-.62,3.74-.07.42-.12.75-.17,1a1.5,1.5,0,0,1-.08.35,2,2,0,0,1,0-.36c0-.27.06-.61.11-1,.09-.9.27-2.18.52-3.77a110.66,110.66,0,0,1,2.67-12.25,112.71,112.71,0,0,1,4-11.87c.6-1.48,1.12-2.68,1.5-3.49.17-.38.32-.69.43-.93A1.31,1.31,0,0,1,121.71,331.18Z" style="fill:#263238"></path><path d="M108.79,381.59a23.86,23.86,0,0,1-12-20c-.28-5.84,1.52-11.57,3.55-17.05a2.22,2.22,0,0,1,.83-1.24,2.08,2.08,0,0,1,2,.31c5.32,3,8.55,8.8,10.26,14.68a29.6,29.6,0,0,1,1.2,12.07,20,20,0,0,1-5.79,11.24" style="fill:#455a64"></path><path d="M108.79,381.59a1.6,1.6,0,0,1,0-.35c0-.27,0-.61,0-1,0-.87,0-2.14-.11-3.7a102.64,102.64,0,0,0-1.35-12.16c-.82-4.72-1.8-8.94-2.53-12-.36-1.49-.65-2.71-.86-3.61-.1-.4-.17-.72-.23-1a1.56,1.56,0,0,1-.06-.35,1.38,1.38,0,0,1,.12.33l.29,1c.24.84.57,2.07,1,3.59.79,3,1.81,7.26,2.62,12a88.64,88.64,0,0,1,1.27,12.21c0,1.57,0,2.84,0,3.72,0,.41,0,.74,0,1A1.22,1.22,0,0,1,108.79,381.59Z" style="fill:#263238"></path><g style="opacity:0.30000000000000004"><path d="M108.79,381.59a23.86,23.86,0,0,1-12-20c-.28-5.84,1.52-11.57,3.55-17.05a2.22,2.22,0,0,1,.83-1.24,2.08,2.08,0,0,1,2,.31c5.32,3,8.55,8.8,10.26,14.68a29.6,29.6,0,0,1,1.2,12.07,20,20,0,0,1-5.79,11.24"></path></g><path d="M117.05,426c7.21,1.59,13.14,6.67,20.09,9.14,4.6,1.64,9.8,2.21,13.47,5.43-.88-2.23-3-3.71-5-5a89.31,89.31,0,0,0-18.21-8.7c-3.27-1.13-6.81-2.07-10.15-1.14" style="fill:#455a64"></path><path d="M106.63,432.45c-9-.14-18.52-7.82-27.5-8.28,9.4-3,22.86-.56,27.5,8.28" style="fill:#455a64"></path><path d="M110.16,410.81a29.38,29.38,0,0,1,14.43-1,87.5,87.5,0,0,1,14.08,3.82c-.47-3.13-3-5.48-5.38-7.56a37.18,37.18,0,0,0-5.66-4.35,12.59,12.59,0,0,0-6.78-1.91,10.7,10.7,0,0,0-7.48,3.77,12.37,12.37,0,0,0-3.21,7.21" style="fill:#455a64"></path><path d="M91.64,400.85C86,396,77.36,396.47,69.89,396.64a177,177,0,0,1,33.73,21C103.93,412.38,98.82,407,91.64,400.85Z" style="fill:#455a64"></path><g style="opacity:0.30000000000000004"><path d="M91.64,400.85C86,396,77.36,396.47,69.89,396.64a177,177,0,0,1,33.73,21C103.93,412.38,98.82,407,91.64,400.85Z"></path></g><path d="M112.71,394.15a64.1,64.1,0,0,1,8.74-5.08c3-1.35,5.78-3.52,8.67-5.08,3.74-2,7-4.85,10.42-7.36s7.21-4.78,11.42-5.45a22.45,22.45,0,0,0-10.39.6,66.45,66.45,0,0,0-9.78,3.81c-4.43,2-8.94,4-12.56,7.28s-6.9,6.44-6.52,11.28" style="fill:#455a64"></path><path d="M137,432.45a1.1,1.1,0,0,1-.28-.12l-.79-.41c-.68-.36-1.65-.9-2.88-1.51-.61-.32-1.28-.66-2-1s-1.51-.72-2.35-1.08a34,34,0,0,0-5.55-1.93,11.9,11.9,0,0,0-5.79-.15,18.23,18.23,0,0,0-2.45.73,12.18,12.18,0,0,0-2,1,12.38,12.38,0,0,0-2.49,2.06c-.52.56-.78.9-.8.88s0-.1.16-.26.3-.41.54-.71a12,12,0,0,1,2.46-2.16,12.89,12.89,0,0,1,2-1.07,16.13,16.13,0,0,1,2.49-.78,12.08,12.08,0,0,1,5.93.12,33,33,0,0,1,5.6,2q1.26.56,2.34,1.11c.73.35,1.4.7,2,1,1.22.64,2.18,1.21,2.84,1.6l.76.46C136.89,432.38,137,432.44,137,432.45Z" style="fill:#263238"></path><path d="M99.9,428a2.1,2.1,0,0,1,.57.17,11.3,11.3,0,0,1,1.47.64,18.13,18.13,0,0,1,4.31,3,17.84,17.84,0,0,1,3.23,4.19,14.73,14.73,0,0,1,.7,1.44,1.86,1.86,0,0,1,.18.56s-.39-.74-1.08-1.89a20.36,20.36,0,0,0-3.25-4.06,20,20,0,0,0-4.2-3.09C100.66,428.34,99.88,428,99.9,428Z" style="fill:#263238"></path><path d="M79.94,400.39a1.76,1.76,0,0,1,.38.12l1.09.38,1.71.63c.66.25,1.38.61,2.2,1A52.36,52.36,0,0,1,97.07,410a57.33,57.33,0,0,1,5.48,5.39,59.78,59.78,0,0,1,3.88,4.93c1,1.46,1.82,2.67,2.35,3.51l.62,1a1.61,1.61,0,0,1,.2.35,1.57,1.57,0,0,1-.26-.31c-.15-.21-.38-.52-.66-.94-.57-.82-1.38-2-2.43-3.45s-2.37-3.1-3.93-4.86a59.25,59.25,0,0,0-5.46-5.35,55.17,55.17,0,0,0-11.64-7.52c-.8-.37-1.52-.75-2.17-1L81.36,401l-1.06-.44Z" style="fill:#263238"></path><path d="M123.7,405.74a3.69,3.69,0,0,1-.72-.1l-.83-.15c-.32-.06-.7-.06-1.11-.11a11.42,11.42,0,0,0-6.2,1.23A11.18,11.18,0,0,0,112,408.7a12.52,12.52,0,0,0-1.81,2.24,20.09,20.09,0,0,0-1.25,2.37,3.45,3.45,0,0,1,.19-.7,9.85,9.85,0,0,1,.86-1.79,11.92,11.92,0,0,1,1.8-2.33,11.22,11.22,0,0,1,2.88-2.17,11,11,0,0,1,6.37-1.16,9.87,9.87,0,0,1,1.12.15l.83.21A2.68,2.68,0,0,1,123.7,405.74Z" style="fill:#263238"></path><path d="M132.77,377.6a1.91,1.91,0,0,1-.34.21l-1,.55c-.88.47-2.14,1.17-3.67,2.07s-3.31,2-5.22,3.4a43.77,43.77,0,0,0-5.84,4.89,15,15,0,0,0-2.39,3.09c-.59,1.14-1.15,2.23-1.67,3.29a57.14,57.14,0,0,0-2.51,5.7,36.65,36.65,0,0,0-1.22,4c-.23,1-.31,1.51-.34,1.51a1.35,1.35,0,0,1,0-.4c0-.26.09-.65.19-1.14a29.8,29.8,0,0,1,1.13-4.06,54.11,54.11,0,0,1,2.45-5.76c.52-1.06,1.08-2.17,1.66-3.3a14.75,14.75,0,0,1,2.44-3.17,42,42,0,0,1,5.89-4.91c1.93-1.36,3.75-2.47,5.29-3.36s2.83-1.54,3.72-2l1-.49A2.21,2.21,0,0,1,132.77,377.6Z" style="fill:#263238"></path><path d="M107.47,404.92a2.63,2.63,0,0,1-.18-.76c-.11-.55-.24-1.25-.4-2.08a58.93,58.93,0,0,0-1.7-6.77,58.64,58.64,0,0,0-2.58-6.49c-.35-.77-.65-1.42-.88-1.94a3.18,3.18,0,0,1-.29-.72,3.75,3.75,0,0,1,.4.67c.24.44.58,1.08,1,1.89a45.54,45.54,0,0,1,2.68,6.49,46.58,46.58,0,0,1,1.63,6.83c.14.88.24,1.6.29,2.1A3.79,3.79,0,0,1,107.47,404.92Z" style="fill:#263238"></path><path d="M106.81,384.39a24.37,24.37,0,0,0-2.93-9.74,32.17,32.17,0,0,0-21.8-16.25q10.1,15,20.18,30.08l2.61,5.36A15.38,15.38,0,0,0,106.81,384.39Z" style="fill:#455a64"></path><rect x="88.84" y="443.67" width="46.92" height="8.32" style="fill:#F70656"></rect><polygon points="92.34 450.33 96.34 476.14 127.49 476.14 132.25 450.33 92.34 450.33" style="fill:#F70656"></polygon><path d="M135.73,452c0,.09-10.58.17-23.63.17s-23.64-.08-23.64-.17,10.58-.16,23.64-.16S135.73,451.9,135.73,452Z" style="fill:#263238"></path></g><g id="freepik--magnifying-glass--inject-2"><path d="M294.14,471.77a54.81,54.81,0,1,1,9.73-103.91h0a54.8,54.8,0,0,1-9.73,103.91ZM271.31,368.34a51.07,51.07,0,1,0,31.12,2.89A51.06,51.06,0,0,0,271.31,368.34Z" style="fill:#455a64"></path><path d="M294.14,471.77a54.81,54.81,0,1,1,9.73-103.91h0a54.8,54.8,0,0,1-9.73,103.91ZM271.31,368.34a51.07,51.07,0,1,0,31.12,2.89A51.06,51.06,0,0,0,271.31,368.34Z" style="fill:#263238"></path><path d="M292.26,474.06A54.81,54.81,0,1,1,302,370.15h0a54.8,54.8,0,0,1-9.74,103.91ZM269.43,370.63a51.1,51.1,0,1,0,31.13,2.9A51.15,51.15,0,0,0,269.43,370.63Z" style="fill:#455a64"></path><path d="M418.43,470.69l-.88,2.26c-.79,2-4.3,2.55-6.47,1.69L329,442.69l4.13-10.62L415.09,464C417.75,465.1,419.44,468.09,418.43,470.69Z" style="fill:#455a64"></path><path d="M304.7,399.78c.09.11-10.33,8.7-23.27,19.18s-23.51,18.9-23.6,18.78,10.32-8.7,23.27-19.18S304.61,399.67,304.7,399.78Z" style="fill:#263238"></path><path d="M290.49,396.6c.09.11-7.62,6.67-17.21,14.64s-17.45,14.36-17.54,14.25,7.61-6.67,17.21-14.65S290.39,396.49,290.49,396.6Z" style="fill:#263238"></path><path d="M303.54,416.51c.09.11-5.18,4.65-11.77,10.13s-12,9.84-12.12,9.73,5.18-4.65,11.78-10.13S303.45,416.4,303.54,416.51Z" style="fill:#263238"></path></g><g id="freepik--chart-6--inject-2"><path d="M654.34,256.46a37.65,37.65,0,1,1-38.25-37.21A37.78,37.78,0,0,1,654.34,256.46Zm-55.65.9A18,18,0,1,0,616.4,239,18.06,18.06,0,0,0,598.69,257.36Z" style="fill:#f5f5f5"></path><path d="M654.34,256.46a37.78,37.78,0,0,1-37,38.42L617,275.15A18.09,18.09,0,0,0,616.4,239l-.31-19.73A37.77,37.77,0,0,1,654.34,256.46Z" style="fill:#455a64"></path><path d="M654.34,256.46a37.65,37.65,0,1,1-38.25-37.21A37.78,37.78,0,0,1,654.34,256.46Zm-55.65.9A18,18,0,1,0,616.4,239,18.06,18.06,0,0,0,598.69,257.36Z" style="fill:none"></path><path d="M598.69,257.36a1.36,1.36,0,0,1,0-.3v-.86a9.25,9.25,0,0,1,.09-1.39,13.09,13.09,0,0,1,.32-1.89A16.89,16.89,0,0,1,601,248a18.07,18.07,0,0,1,21.68-8.27,17.26,17.26,0,0,1,4.66,2.42,20.18,20.18,0,0,1,2.1,1.74,21.55,21.55,0,0,1,1.83,2.09,18.25,18.25,0,0,1,.34,21.63,19.3,19.3,0,0,1-1.75,2.15,21.65,21.65,0,0,1-2,1.81,17.06,17.06,0,0,1-4.59,2.56,18.08,18.08,0,0,1-21.93-7.56,17.07,17.07,0,0,1-2-4.82,12.38,12.38,0,0,1-.37-1.88,7.83,7.83,0,0,1-.14-1.39c0-.36,0-.64,0-.86a1,1,0,0,1,0-.29,30.83,30.83,0,0,0,.73,4.36,17.49,17.49,0,0,0,2.08,4.73,18.07,18.07,0,0,0,4.63,5A17.64,17.64,0,0,0,623,273.72a16.43,16.43,0,0,0,4.45-2.52,17.31,17.31,0,0,0,2-1.76,19.22,19.22,0,0,0,1.71-2.09,17.79,17.79,0,0,0-.34-21,19.33,19.33,0,0,0-1.77-2,19,19,0,0,0-2-1.69,16.37,16.37,0,0,0-4.53-2.37,17.62,17.62,0,0,0-16.8,2.81,18.12,18.12,0,0,0-4.47,5.14,17.93,17.93,0,0,0-1.93,4.8A30.62,30.62,0,0,0,598.69,257.36Z" style="fill:#263238"></path><path d="M654.34,256.46s0-.21-.07-.61l-.14-1.79c0-.4-.07-.83-.1-1.32s-.17-1-.27-1.57a29,29,0,0,0-.84-3.88,36.26,36.26,0,0,0-4.33-9.94A37.68,37.68,0,0,0,623,220a36.73,36.73,0,0,0-4.75-.48c-.81,0-1.62-.08-2.44,0l-2.48.17c-.42,0-.84,0-1.25.1l-1.25.22c-.83.15-1.68.26-2.51.45a39.78,39.78,0,0,0-5,1.56,39.13,39.13,0,0,0-4.84,2.25c-.78.45-1.53,1-2.31,1.44a20.22,20.22,0,0,0-2.23,1.6,41.48,41.48,0,0,0-4.17,3.7l-1.87,2.13-.47.54-.42.58-.83,1.16-.84,1.17-.73,1.25-.74,1.25-.36.63-.31.66L582,243l-1,2.79a37.29,37.29,0,0,0,.37,23.65c.36.92.71,1.84,1.06,2.76s.88,1.75,1.31,2.62l.33.66.38.61.78,1.23.77,1.23.87,1.14.88,1.13.43.57.49.52,1.93,2.07a41.31,41.31,0,0,0,4.3,3.57,19.3,19.3,0,0,0,2.28,1.53c.79.45,1.56.94,2.35,1.36a38.2,38.2,0,0,0,4.92,2.09,39.47,39.47,0,0,0,5,1.4c.84.16,1.69.25,2.52.37l1.26.18c.41.05.83,0,1.25.06l2.48.09c.83,0,1.64-.09,2.45-.14a33.43,33.43,0,0,0,4.73-.63,37.1,37.1,0,0,0,15.65-7.31,37.48,37.48,0,0,0,9.35-10.83,36,36,0,0,0,4-10.08,27.32,27.32,0,0,0,.72-3.9c.08-.57.17-1.1.22-1.58s0-.92.05-1.32c0-.77.07-1.37.09-1.79s.05-.61.05-.61,0,.2,0,.61,0,1,0,1.8c0,.39,0,.83,0,1.32s-.12,1-.18,1.59a27.32,27.32,0,0,1-.68,3.93,36.1,36.1,0,0,1-3.95,10.17,37.95,37.95,0,0,1-25.16,18.43,35.85,35.85,0,0,1-4.79.65c-.82,0-1.64.14-2.47.14l-2.52-.08c-.42,0-.84,0-1.26-.06l-1.27-.18c-.85-.12-1.71-.2-2.56-.37a38.9,38.9,0,0,1-5.09-1.41,40.52,40.52,0,0,1-5-2.1c-.81-.43-1.59-.92-2.39-1.38a20.7,20.7,0,0,1-2.31-1.55,43.59,43.59,0,0,1-4.36-3.6l-2-2.1-.49-.53-.45-.57-.88-1.15-.89-1.16-.79-1.24-.78-1.25-.39-.62-.33-.66L582,272.43l-1.08-2.8a37.81,37.81,0,0,1-.38-24l1-2.84,1.24-2.7.31-.67.37-.63.75-1.28.74-1.26.85-1.18.85-1.18.42-.59.48-.54,1.89-2.16a43.81,43.81,0,0,1,4.24-3.74,18.66,18.66,0,0,1,2.26-1.62c.79-.49,1.55-1,2.34-1.46a38.66,38.66,0,0,1,4.91-2.26,37.56,37.56,0,0,1,5-1.57c.85-.2,1.7-.31,2.55-.46l1.26-.21c.42-.07.85-.07,1.27-.11l2.51-.16c.83,0,1.65,0,2.47.06a34.38,34.38,0,0,1,4.8.5,37.83,37.83,0,0,1,25.75,17.6,35.88,35.88,0,0,1,4.27,10,27.08,27.08,0,0,1,.81,3.91c.08.57.19,1.09.24,1.58s.05.92.07,1.32c0,.78.07,1.37.09,1.8S654.34,256.46,654.34,256.46Z" style="fill:#263238"></path><path d="M620.68,297.92a43,43,0,0,1-44-42.85l23-.37c.19,11.66,9.07,19,20.68,18.82Z" style="fill:#F70656"></path><path d="M620.68,297.92a2.86,2.86,0,0,1,0-.45l0-1.29c0-1.15-.07-2.8-.13-4.89-.09-4.24-.22-10.32-.39-17.77l.2.19a25.46,25.46,0,0,1-6.91-.84,19.85,19.85,0,0,1-6.86-3.34,17.79,17.79,0,0,1-5.19-6.34,20,20,0,0,1-2-8.49l.26.25-17.8.29-5.19.09.26-.27a48.32,48.32,0,0,0,2.34,13.6c.39,1,.78,2.07,1.16,3.1s1,2,1.41,2.92a24,24,0,0,0,1.57,2.76,25.55,25.55,0,0,0,1.7,2.58l1.83,2.41c.64.75,1.33,1.45,2,2.16l1,1.05,1.06.94,2.07,1.83a44.86,44.86,0,0,0,8.52,5.26l2,.94c.68.26,1.35.48,2,.71l1.9.66c.62.2,1.24.31,1.83.46l1.7.42.81.19.79.12,2.81.4a20,20,0,0,0,2.24.18l1.65.08,1,.06.37,0h-1.34l-1.68,0a16,16,0,0,1-2.29-.13l-2.83-.35c-.26,0-.53-.06-.79-.11l-.82-.19-1.72-.39c-.59-.15-1.22-.26-1.85-.45l-1.91-.65c-.66-.23-1.34-.44-2-.7l-2.06-.93a43.83,43.83,0,0,1-8.63-5.26l-2.1-1.83-1.08-.94-1-1.06c-.66-.72-1.36-1.42-2-2.18l-1.86-2.42a26.22,26.22,0,0,1-1.73-2.61,23,23,0,0,1-1.59-2.78c-.47-1-1-2-1.43-3s-.79-2.08-1.18-3.13a48.27,48.27,0,0,1-2.39-13.75v-.26h.27l5.18-.09,17.8-.28h.25v.25a19.69,19.69,0,0,0,1.89,8.29,17.51,17.51,0,0,0,5,6.18,19.24,19.24,0,0,0,6.69,3.29,25,25,0,0,0,6.79.87h.2v.2c.08,7.5.14,13.61.18,17.88,0,2.08,0,3.71,0,4.85v1.26C620.69,297.79,620.68,297.93,620.68,297.92Z" style="fill:#263238"></path></g><g id="freepik--char-5--inject-2"><rect x="441.13" y="39.44" width="199.25" height="148.94" style="fill:#fff"></rect><rect x="441.13" y="39.44" width="199.25" height="18.41" style="fill:#e0e0e0"></rect><circle cx="452.04" cy="48.64" r="2.65" style="fill:#fff"></circle><circle cx="460.99" cy="48.64" r="2.65" style="fill:#fff"></circle><circle cx="469.93" cy="48.64" r="2.65" style="fill:#fff"></circle><path d="M640.38,188.38s0-.93,0-2.72,0-4.45,0-7.91c0-6.93,0-17.1-.05-30.09,0-25.95-.07-63.16-.11-108.22l.21.21-199.23.05h0l.26-.26c0,53.52,0,104.23,0,148.94l-.24-.24,143.83.12,40.84.06,10.83,0,2.8,0h0l-2.76,0-10.79,0-40.79.07-144,.11h-.23v-.23c0-44.71,0-95.42,0-148.94v-.26h.28l199.23,0h.21v.22c0,45.11-.08,82.37-.11,108.35,0,13,0,23.12-.05,30,0,3.45,0,6.09,0,7.87S640.38,188.38,640.38,188.38Z" style="fill:#263238"></path><path d="M629.4,129.2c0,.14-39.65.26-88.55.26s-88.56-.12-88.56-.26,39.64-.26,88.56-.26S629.4,129.05,629.4,129.2Z" style="fill:#e0e0e0"></path><path d="M629.4,113.91c0,.14-39.65.26-88.55.26s-88.56-.12-88.56-.26,39.64-.26,88.56-.26S629.4,113.76,629.4,113.91Z" style="fill:#e0e0e0"></path><path d="M629.4,98.62c0,.14-39.65.26-88.55.26s-88.56-.12-88.56-.26,39.64-.26,88.56-.26S629.4,98.47,629.4,98.62Z" style="fill:#e0e0e0"></path><path d="M629.4,83.33c0,.14-39.65.26-88.55.26s-88.56-.12-88.56-.26,39.64-.26,88.56-.26S629.4,83.18,629.4,83.33Z" style="fill:#e0e0e0"></path><path d="M617,128.63c-3.45-8.33-5.82-17.43-8.47-26.06-2.3-7.51-2.52-11-4.49-17.37-3.12-10-11.36-11.1-17.36-8.39-5.34,2.42-7.64,8.69-9.41,14.34l-6.36,20.27a36,36,0,0,1-3.88,9.24c-1.85,2.79-4.66,5.11-7.94,5.54-5.42.71-10.27-3.82-12.59-8.83s-3-10.67-5-15.8-6.33-10-11.79-10.14c-6.73-.12-11.3,6.74-14.09,12.94a148.16,148.16,0,0,0-8.48,24.24,33,33,0,0,1-2.82,8.27c-1.44,2.53-3.82,4.7-6.69,5.05-3.69.45-7.12-2.18-9.26-5.26s-3.47-6.69-5.67-9.73-5.74-5.57-9.41-4.93c-3.29.58-5.64,3.46-7.59,6.21A145.54,145.54,0,0,0,452,151.9h183.2C626.8,149,620.41,137,617,128.63Z" style="fill:#F70656"></path><rect x="494.86" y="163.9" width="8.65" height="8.65" style="fill:#F70656"></rect><path d="M557.62,168.22H512.5a1,1,0,0,1-1-1h0a1,1,0,0,1,1-1h45.12a1,1,0,0,1,1,1h0A1,1,0,0,1,557.62,168.22Z" style="fill:#263238"></path><path d="M627.29,151.9l-.66,0-1.93,0-7.44.05-27.36.08-90.25.08-47.61,0h-.24v-.24c0-23.47.07-43.48.09-57.64,0-7.05.05-12.65.07-16.51,0-1.9,0-3.37,0-4.39,0-.48,0-.85,0-1.13s0-.38,0-.38,0,.13,0,.38,0,.65,0,1.13c0,1,0,2.49,0,4.39,0,3.86,0,9.46.07,16.51,0,14.16.05,34.17.09,57.64l-.24-.24,47.61,0,90.25.08,27.36.08,7.44,0,1.93,0C627.07,151.88,627.29,151.9,627.29,151.9Z" style="fill:#263238"></path><g style="opacity:0.30000000000000004"><polygon points="605.78 91.92 540.76 151.9 573.27 151.9 612.41 115.66 605.78 91.92" style="fill:#fff"></polygon></g><g style="opacity:0.30000000000000004"><polyline points="548.5 120.76 512.73 151.9 503.51 151.9 545.75 115.68 549.43 121.91" style="fill:#fff"></polyline></g><path d="M452,151.9a115.46,115.46,0,0,1,6-12,136.56,136.56,0,0,1,8.5-13.22,16.87,16.87,0,0,1,3.35-3.41,7.57,7.57,0,0,1,4.82-1.55,9.24,9.24,0,0,1,5,1.95,15.53,15.53,0,0,1,3.79,4.22c2.11,3.24,3.46,7.17,6.26,10.28a11.12,11.12,0,0,0,5.25,3.35,7,7,0,0,0,3.18,0,7.9,7.9,0,0,0,2.93-1.42,12.43,12.43,0,0,0,3.9-5.46,58,58,0,0,0,2-6.82,147.89,147.89,0,0,1,4.46-14.23q1.32-3.58,2.87-7.19a51.19,51.19,0,0,1,3.56-7.1,20.86,20.86,0,0,1,5.39-6.09,11.15,11.15,0,0,1,3.75-1.81,10,10,0,0,1,4.22-.12,12.58,12.58,0,0,1,7.07,4.52,22.43,22.43,0,0,1,4,7.55c.92,2.74,1.55,5.56,2.35,8.34a28,28,0,0,0,3.35,8,14.63,14.63,0,0,0,6.4,5.58,8.86,8.86,0,0,0,8.07-.66,14.87,14.87,0,0,0,5.42-6.25,53.48,53.48,0,0,0,2.87-7.82q2.5-7.94,4.9-15.58c.81-2.54,1.54-5.08,2.45-7.54a26.52,26.52,0,0,1,3.56-6.92,13.48,13.48,0,0,1,2.71-2.73,12.81,12.81,0,0,1,3.39-1.74,15,15,0,0,1,3.68-.74,13.46,13.46,0,0,1,3.69.31,11.35,11.35,0,0,1,6,3.85,17.91,17.91,0,0,1,3.12,6.21c1.34,4.35,2.07,8.69,3.15,12.74.52,2,1.13,4,1.71,5.93s1.13,3.83,1.68,5.68a176.19,176.19,0,0,0,6.66,19.67,67.62,67.62,0,0,0,7.59,13.68,28.2,28.2,0,0,0,7,6.93,17,17,0,0,0,2.28,1.2l.8.36-.82-.31a15.79,15.79,0,0,1-2.31-1.16,27.54,27.54,0,0,1-7.1-6.9,66.57,66.57,0,0,1-7.69-13.69,171.55,171.55,0,0,1-6.75-19.68c-.56-1.85-1.12-3.74-1.7-5.67s-1.2-3.9-1.73-5.94c-1.09-4.07-1.83-8.39-3.18-12.71a17.34,17.34,0,0,0-3-6,10.89,10.89,0,0,0-5.79-3.7,13.6,13.6,0,0,0-3.55-.29,14.18,14.18,0,0,0-3.56.73,11.8,11.8,0,0,0-5.87,4.31,26.15,26.15,0,0,0-3.48,6.8c-.89,2.44-1.63,5-2.44,7.52q-2.38,7.64-4.88,15.58a53.24,53.24,0,0,1-2.9,7.9,15.26,15.26,0,0,1-5.62,6.46,9.27,9.27,0,0,1-8.52.7,15.05,15.05,0,0,1-6.64-5.77,28.64,28.64,0,0,1-3.42-8.12c-.8-2.8-1.44-5.61-2.34-8.31A22.14,22.14,0,0,0,538,96.21a12.09,12.09,0,0,0-6.78-4.35,9.58,9.58,0,0,0-4,.12,10.64,10.64,0,0,0-3.59,1.72,20.75,20.75,0,0,0-5.26,5.94,51.33,51.33,0,0,0-3.53,7q-1.54,3.6-2.87,7.17c-1.77,4.77-3.25,9.51-4.47,14.18a55.86,55.86,0,0,1-2,6.86,12.81,12.81,0,0,1-4,5.64,7.92,7.92,0,0,1-3.09,1.49,7.28,7.28,0,0,1-3.38,0,11.46,11.46,0,0,1-5.44-3.48c-2.87-3.21-4.2-7.15-6.28-10.35a15.18,15.18,0,0,0-3.69-4.14,8.91,8.91,0,0,0-4.82-1.9,7.29,7.29,0,0,0-4.62,1.47,16.82,16.82,0,0,0-3.3,3.34A141.2,141.2,0,0,0,458.23,140c-2.15,3.73-3.66,6.72-4.67,8.75l-1.13,2.32C452.18,151.64,452,151.9,452,151.9Z" style="fill:#263238"></path></g><g id="freepik--chart-4--inject-2"><rect x="194.81" y="244.34" width="179.23" height="107.73" style="fill:#fff"></rect><rect x="194.81" y="244.34" width="179.23" height="16.56" style="fill:#e0e0e0"></rect><path d="M207,252.62a2.39,2.39,0,1,1-2.39-2.38A2.39,2.39,0,0,1,207,252.62Z" style="fill:#fff"></path><path d="M215.05,252.62a2.39,2.39,0,1,1-2.38-2.38A2.38,2.38,0,0,1,215.05,252.62Z" style="fill:#fff"></path><path d="M223.1,252.62a2.39,2.39,0,1,1-2.39-2.38A2.39,2.39,0,0,1,223.1,252.62Z" style="fill:#fff"></path><path d="M374,352.08s0-.67,0-1.95,0-3.17,0-5.64c0-5,0-12.24-.06-21.58,0-18.67-.06-45.58-.1-78.57l.2.21-179.22,0h0l.26-.26c0,38.17,0,74.59,0,107.74l-.24-.25,129,.12,37,.07,9.85,0h2.55l.87,0h-3.36l-9.8,0L324,352.2l-129.14.12h-.24v-.24c0-33.15,0-69.57,0-107.74v-.26h.27l179.22.06h.2v.2c0,33-.08,60-.1,78.69,0,9.33,0,16.59-.06,21.54,0,2.45,0,4.33,0,5.61S374,352.08,374,352.08Z" style="fill:#263238"></path><rect x="214.44" y="279.05" width="7.62" height="55.78" style="fill:#F70656"></rect><rect x="229.15" y="297.99" width="7.62" height="36.83" style="fill:#F70656"></rect><rect x="243.85" y="285.98" width="7.62" height="49.13" style="fill:#F70656"></rect><rect x="258.56" y="281.2" width="7.62" height="53.63" style="fill:#F70656"></rect><rect x="273.26" y="299.12" width="7.62" height="35.7" style="fill:#F70656"></rect><rect x="287.97" y="306.13" width="7.62" height="28.7" style="fill:#F70656"></rect><rect x="302.67" y="284.77" width="7.62" height="50.05" style="fill:#F70656"></rect><rect x="317.38" y="293.8" width="7.62" height="41.03" style="fill:#F70656"></rect><rect x="332.08" y="286.58" width="7.62" height="48.24" style="fill:#F70656"></rect><rect x="346.79" y="301.96" width="7.62" height="32.87" style="fill:#F70656"></rect><g style="opacity:0.30000000000000004"><rect x="229.15" y="297.99" width="7.62" height="36.83" style="fill:#fff"></rect></g><g style="opacity:0.30000000000000004"><rect x="258.56" y="281.2" width="7.62" height="53.63" style="fill:#fff"></rect></g><g style="opacity:0.30000000000000004"><rect x="287.97" y="306.13" width="7.62" height="28.7" style="fill:#fff"></rect></g><g style="opacity:0.30000000000000004"><rect x="317.38" y="293.8" width="7.62" height="41.03" style="fill:#fff"></rect></g><g style="opacity:0.30000000000000004"><rect x="346.79" y="301.96" width="7.62" height="32.87" style="fill:#fff"></rect></g><path d="M365.35,334.83c0,.14-35.45.26-79.17.26S207,335,207,334.83s35.44-.27,79.18-.27S365.35,334.68,365.35,334.83Z" style="fill:#263238"></path></g><g id="freepik--chart-1--inject-2"><rect x="57.97" y="165.57" width="95.51" height="95.51" style="fill:#fff"></rect><path d="M107.77,220.76l26.33.36c-.2,14-12,25.48-26.33,25.48h-.16Z" style="fill:#455a64"></path><path d="M103.6,217l-.37,25.84c-14.31-.2-26-11.8-26-25.84s11.89-25.84,26.34-25.84,26.34,11.67,26.34,25.84Z" style="fill:#F70656"></path><rect x="57.97" y="165.57" width="95.42" height="18.79" style="fill:#e0e0e0"></rect><circle cx="69.1" cy="174.96" r="2.71" style="fill:#fff"></circle><circle cx="78.23" cy="174.96" r="2.71" style="fill:#fff"></circle><path d="M90.07,175a2.71,2.71,0,1,1-2.71-2.71A2.71,2.71,0,0,1,90.07,175Z" style="fill:#fff"></path><path d="M153.48,261.08s0-.16,0-.46,0-.75,0-1.32c0-1.18,0-2.9,0-5.14,0-4.49,0-11.07-.06-19.43,0-16.71-.07-40.55-.12-69.16l.23.22-95.5,0h0l.26-.26c0,35,0,67.75,0,95.51l-.23-.23,69.17.11,19.43.06,5.13,0H153l.46,0h-1.73l-5.09,0-19.38.06L58,261.3h-.22v-.22c0-27.76,0-60.54,0-95.51v-.26H58l95.5,0h.22v.23c0,28.66-.08,52.56-.11,69.31,0,8.33-.05,14.89-.06,19.37q0,3.35,0,5.1c0,.56,0,1,0,1.29S153.48,261.08,153.48,261.08Z" style="fill:#263238"></path></g><g id="freepik--chart-2--inject-2"><rect x="126.54" y="34.39" width="260.41" height="187.93" style="fill:#fff"></rect><rect x="259.75" y="76.99" width="98.87" height="43.33" rx="18.58" style="fill:#ebebeb"></rect><path d="M145.2,125.37a40.29,40.29,0,1,1,40.93,39.82A40.43,40.43,0,0,1,145.2,125.37Zm59.54-1a19.26,19.26,0,1,0-19,19.66A19.33,19.33,0,0,0,204.74,124.41Z" style="fill:#f5f5f5"></path><path d="M145.2,125.37a40.43,40.43,0,0,1,39.63-41.12l.34,21.12a19.35,19.35,0,0,0,.62,38.7l.34,21.12A40.42,40.42,0,0,1,145.2,125.37Z" style="fill:#455a64"></path><path d="M145.2,125.37a40.29,40.29,0,1,1,40.93,39.82A40.43,40.43,0,0,1,145.2,125.37Zm59.54-1a19.26,19.26,0,1,0-19,19.66A19.33,19.33,0,0,0,204.74,124.41Z" style="fill:none"></path><path d="M204.74,124.41a1.43,1.43,0,0,1,0,.31v.92a9.42,9.42,0,0,1-.1,1.49,13.51,13.51,0,0,1-.34,2,18.16,18.16,0,0,1-2,5.23,19,19,0,0,1-4.8,5.65,19.2,19.2,0,0,1-18.38,3.19,21.9,21.9,0,0,1-2.57-1.08,21.17,21.17,0,0,1-2.42-1.51,22.89,22.89,0,0,1-2.24-1.85,23.18,23.18,0,0,1-1.95-2.24,19,19,0,0,1-2.88-5.35A21.08,21.08,0,0,1,166,125a20.61,20.61,0,0,1,.91-6.19,18.83,18.83,0,0,1,2.7-5.44,18.3,18.3,0,0,1,4.06-4.23A20.34,20.34,0,0,1,176,107.6a19.78,19.78,0,0,1,2.53-1.16A19.34,19.34,0,0,1,202,114.52a18.24,18.24,0,0,1,2.17,5.16,14.22,14.22,0,0,1,.4,2,9,9,0,0,1,.15,1.48c0,.39,0,.69,0,.92a1.3,1.3,0,0,1,0,.32,1.16,1.16,0,0,1-.05-.31c0-.24-.05-.54-.09-.92a9.55,9.55,0,0,0-.19-1.47,14.65,14.65,0,0,0-.45-2,18.13,18.13,0,0,0-2.22-5.06,19.36,19.36,0,0,0-5-5.35,18.91,18.91,0,0,0-18.09-2.44,17.9,17.9,0,0,0-4.77,2.7A17.56,17.56,0,0,0,170,113.7a18.63,18.63,0,0,0-2.63,5.3,20.23,20.23,0,0,0-.88,6,19.16,19.16,0,0,0,3.87,11.2,17.59,17.59,0,0,0,4.08,4,19.2,19.2,0,0,0,2.35,1.47,20.14,20.14,0,0,0,2.5,1.06,18.91,18.91,0,0,0,18-3,19.28,19.28,0,0,0,4.78-5.51,18.46,18.46,0,0,0,2.06-5.13,12.69,12.69,0,0,0,.38-2,9,9,0,0,0,.15-1.48c0-.38.05-.68.06-.92A1.44,1.44,0,0,1,204.74,124.41Z" style="fill:#263238"></path><path d="M145.2,125.37s0,.22.07.65.08,1.09.15,1.91c0,.43.07.9.11,1.41s.18,1.08.28,1.69.22,1.26.34,2a22.09,22.09,0,0,0,.56,2.19,38.5,38.5,0,0,0,4.63,10.64,40.14,40.14,0,0,0,10.37,11.27l1.75,1.27c.61.4,1.26.75,1.9,1.14s1.28.79,2,1.11l2.1,1,1.06.49,1.12.39,2.27.79c.77.25,1.58.4,2.38.6a19.8,19.8,0,0,0,2.43.52,37,37,0,0,0,5.09.51c.86,0,1.74.09,2.62.06l2.65-.18c.45,0,.9,0,1.34-.11l1.33-.23c.89-.17,1.8-.28,2.7-.49a43.53,43.53,0,0,0,10.5-4.07c.84-.48,1.64-1,2.47-1.54a20.93,20.93,0,0,0,2.39-1.72,43.81,43.81,0,0,0,4.47-4l2-2.28.5-.57.45-.62.89-1.25.9-1.25.79-1.34.78-1.34.39-.67.33-.71,1.31-2.85,1-3a39.94,39.94,0,0,0-.4-25.32l-1.14-3c-.46-.94-.93-1.88-1.4-2.81l-.35-.7-.41-.66-.83-1.32-.82-1.31-.94-1.22-.94-1.22-.46-.6-.53-.56c-.69-.75-1.38-1.48-2.07-2.22a43.33,43.33,0,0,0-4.59-3.81,19.74,19.74,0,0,0-2.45-1.64c-.84-.49-1.66-1-2.51-1.47a43.75,43.75,0,0,0-5.27-2.23,41.63,41.63,0,0,0-5.37-1.49c-.9-.18-1.81-.27-2.7-.41l-1.35-.18c-.44-.06-.89,0-1.34-.07l-2.66-.09c-.88,0-1.75.1-2.61.14a36.6,36.6,0,0,0-5.07.68,19.86,19.86,0,0,0-2.42.59c-.79.23-1.59.41-2.35.68l-2.24.87-1.11.42-1.05.53-2.07,1c-.68.33-1.29.79-1.93,1.17s-1.27.78-1.87,1.2l-1.71,1.32a40.15,40.15,0,0,0-10,11.6,38.44,38.44,0,0,0-4.28,10.79,20.71,20.71,0,0,0-.49,2.21c-.1.7-.2,1.35-.28,2s-.19,1.17-.23,1.68,0,1-.06,1.42c0,.83-.07,1.46-.09,1.91s-.05.66-.05.66,0-.22,0-.66,0-1.09,0-1.92c0-.42,0-.9,0-1.42s.13-1.08.2-1.69.17-1.28.26-2a20.75,20.75,0,0,1,.47-2.23,38.75,38.75,0,0,1,4.22-10.88,40.43,40.43,0,0,1,10-11.75l1.72-1.34c.61-.43,1.25-.81,1.88-1.22s1.26-.85,1.95-1.19l2.09-1,1-.54,1.12-.43,2.27-.88c.76-.28,1.57-.46,2.37-.7a21.92,21.92,0,0,1,2.45-.61,37.12,37.12,0,0,1,5.12-.69c.87,0,1.75-.15,2.64-.16l2.69.09c.45,0,.9,0,1.36.07l1.35.18c.91.14,1.83.23,2.74.4a43.19,43.19,0,0,1,5.44,1.51A41.06,41.06,0,0,1,204,88.53c.86.46,1.7,1,2.55,1.48a21.35,21.35,0,0,1,2.48,1.65,45.63,45.63,0,0,1,4.66,3.86l2.09,2.24.53.57.48.61.94,1.23,1,1.24.83,1.32.84,1.34.42.67.35.7,1.43,2.85c.38,1,.76,2,1.15,3a40.37,40.37,0,0,1,.4,25.64l-1,3c-.44,1-.89,1.93-1.33,2.89l-.33.72-.4.68-.79,1.36-.8,1.35-.91,1.26-.91,1.26-.45.63-.51.58c-.68.78-1.35,1.55-2,2.31a45,45,0,0,1-4.53,4,21.71,21.71,0,0,1-2.42,1.73c-.84.52-1.65,1.07-2.5,1.56a42,42,0,0,1-5.25,2.42,43,43,0,0,1-5.39,1.68c-.9.21-1.82.32-2.72.49l-1.35.23c-.45.07-.91.07-1.36.11l-2.68.17c-.89,0-1.77,0-2.65-.06a39.24,39.24,0,0,1-5.14-.53,21.91,21.91,0,0,1-2.46-.53c-.81-.21-1.62-.36-2.4-.62l-2.29-.8-1.13-.4-1.08-.5-2.11-1c-.7-.32-1.33-.76-2-1.13s-1.3-.75-1.92-1.15l-1.76-1.29A40.24,40.24,0,0,1,151.09,146a38.25,38.25,0,0,1-4.57-10.74A19.12,19.12,0,0,1,146,133l-.33-2c-.09-.61-.2-1.17-.25-1.69s-.06-1-.08-1.42c0-.83-.08-1.47-.11-1.92S145.2,125.37,145.2,125.37Z" style="fill:#263238"></path><path d="M181.21,81c26-.42,46.72,19.75,47.14,45.86l-24.6.39c-.2-12.48-9.69-20.34-22.12-20.14Z" style="fill:#F70656"></path><path d="M181.21,81s0,.17,0,.49,0,.79,0,1.37c0,1.23.07,3,.13,5.24.1,4.53.23,11,.41,19l-.2-.19a27.09,27.09,0,0,1,7.39.91,21,21,0,0,1,7.33,3.56,19.21,19.21,0,0,1,5.56,6.78,21.5,21.5,0,0,1,2.1,9.08l-.26-.25,19-.31,5.55-.09-.25.26a51.58,51.58,0,0,0-2.51-14.55L224.34,109c-.47-1.07-1-2.1-1.51-3.13a25,25,0,0,0-1.68-3,28.16,28.16,0,0,0-1.82-2.77c-.66-.87-1.32-1.72-2-2.57s-1.43-1.55-2.12-2.32l-1.05-1.12-1.13-1-2.22-2a47.41,47.41,0,0,0-9.12-5.63l-2.18-1c-.73-.29-1.45-.52-2.15-.77l-2-.7c-.66-.21-1.32-.34-2-.5l-1.83-.44-.86-.21-.85-.12-3-.43a20.68,20.68,0,0,0-2.4-.19l-1.77-.09L181.6,81l-.39,0h1.44l1.79,0a16.84,16.84,0,0,1,2.45.14l3,.38.85.12.87.19,1.85.43c.63.16,1.3.27,2,.48l2,.69c.7.25,1.43.47,2.16.75l2.21,1a47.64,47.64,0,0,1,9.24,5.62c.73.65,1.48,1.3,2.24,2l1.15,1,1.06,1.13c.7.77,1.45,1.52,2.15,2.34l2,2.59a27.53,27.53,0,0,1,1.85,2.79,24.18,24.18,0,0,1,1.7,3c.5,1,1.06,2.07,1.53,3.16l1.27,3.35a51.87,51.87,0,0,1,2.55,14.7v.26h-.26l-5.55.09-19,.3h-.26v-.25a20.91,20.91,0,0,0-2-8.87,18.66,18.66,0,0,0-5.4-6.63,20.7,20.7,0,0,0-7.16-3.52,27,27,0,0,0-7.27-.93h-.2v-.19c-.09-8-.16-14.57-.2-19.14,0-2.23,0-4,0-5.19V81.45C181.2,81.15,181.21,81,181.21,81Z" style="fill:#263238"></path><rect x="126.54" y="34.39" width="260.41" height="25.1" style="fill:#e0e0e0"></rect><path d="M347,91.53H273.8A1.56,1.56,0,0,1,272.24,90h0a1.56,1.56,0,0,1,1.56-1.56H347A1.56,1.56,0,0,1,348.55,90h0A1.56,1.56,0,0,1,347,91.53Z" style="fill:#263238"></path><path d="M347,99.83H273.8a1.56,1.56,0,0,1-1.56-1.56h0a1.56,1.56,0,0,1,1.56-1.57H347a1.56,1.56,0,0,1,1.56,1.57h0A1.56,1.56,0,0,1,347,99.83Z" style="fill:#263238"></path><path d="M307.06,108.13H273.8a1.56,1.56,0,0,1-1.56-1.56h0A1.56,1.56,0,0,1,273.8,105h33.26a1.56,1.56,0,0,1,1.57,1.56h0A1.56,1.56,0,0,1,307.06,108.13Z" style="fill:#263238"></path><rect x="259.75" y="130" width="98.87" height="43.33" rx="18.58" style="fill:#ebebeb"></rect><path d="M349,200.35H267.27a8.57,8.57,0,0,1-8.56-8.57h0a8.56,8.56,0,0,1,8.56-8.56H349a8.57,8.57,0,0,1,8.57,8.56h0A8.57,8.57,0,0,1,349,200.35Z" style="fill:#ebebeb"></path><path d="M346.51,144.92H273.32a1.56,1.56,0,0,1-1.56-1.56h0a1.56,1.56,0,0,1,1.56-1.56h73.19a1.56,1.56,0,0,1,1.56,1.56h0A1.56,1.56,0,0,1,346.51,144.92Z" style="fill:#263238"></path><path d="M343.39,193.53H270.2a1.56,1.56,0,0,1-1.56-1.56h0a1.56,1.56,0,0,1,1.56-1.56h73.19A1.56,1.56,0,0,1,345,192h0A1.56,1.56,0,0,1,343.39,193.53Z" style="fill:#263238"></path><path d="M346.51,153.22H273.32a1.56,1.56,0,0,1-1.56-1.56h0a1.56,1.56,0,0,1,1.56-1.56h73.19a1.56,1.56,0,0,1,1.56,1.56h0A1.56,1.56,0,0,1,346.51,153.22Z" style="fill:#263238"></path><path d="M306.58,161.52H273.32a1.56,1.56,0,0,1-1.56-1.56h0a1.56,1.56,0,0,1,1.56-1.56h33.26a1.56,1.56,0,0,1,1.56,1.56h0A1.56,1.56,0,0,1,306.58,161.52Z" style="fill:#263238"></path><path d="M254.64,86.25a7.58,7.58,0,0,1-1.37.1l-3.73.08c-3.15,0-7.51.08-12.31.08l-5.61,0,.18-.07c-2.45,2.42-4.56,4.48-6.07,5.93L224,94a3.35,3.35,0,0,1-.67.56,3.35,3.35,0,0,1,.56-.67l1.68-1.78c1.44-1.51,3.51-3.62,5.93-6.07l.07-.07h5.71c4.8,0,9.16,0,12.31.07l3.73.08A6.91,6.91,0,0,1,254.64,86.25Z" style="fill:#263238"></path><circle cx="253.56" cy="86.32" r="2.08" style="fill:#263238"></circle><circle cx="253.56" cy="148.84" r="2.08" style="fill:#263238"></circle><path d="M252.18,149.21a24.26,24.26,0,0,1-3.49.15c-2.16,0-5.14,0-8.43,0l-8.42-.08-2.56-.06a6.63,6.63,0,0,1-.93,0,14.06,14.06,0,0,1,3.48-.27c2.16-.06,5.14-.09,8.43-.07s6.27.06,8.43.12A22.17,22.17,0,0,1,252.18,149.21Z" style="fill:#263238"></path><rect x="158.23" y="194.91" width="6.82" height="6.82" style="fill:#455a64"></rect><rect x="181.1" y="194.91" width="6.82" height="6.82" style="fill:#e0e0e0"></rect><rect x="205.91" y="194.91" width="6.82" height="6.82" style="fill:#F70656"></rect><path d="M144.26,46.94a3.47,3.47,0,1,1-3.47-3.62A3.54,3.54,0,0,1,144.26,46.94Z" style="fill:#fff"></path><path d="M156,46.94a3.47,3.47,0,1,1-3.47-3.62A3.54,3.54,0,0,1,156,46.94Z" style="fill:#fff"></path><path d="M167.64,46.94a3.47,3.47,0,1,1-3.46-3.62A3.54,3.54,0,0,1,167.64,46.94Z" style="fill:#fff"></path><path d="M387,222.32c0-1.75-.09-73.94-.21-187.93l.21.21-260.39,0h0l.26-.26c0,67.36,0,131.24,0,187.93l-.23-.24,260.41.24-260.41.23h-.24v-.23c0-56.69,0-120.57,0-187.93v-.26h.28l260.39,0h.21v.21C387,148.38,387,220.57,387,222.32Z" style="fill:#263238"></path></g><g id="freepik--chart-3--inject-2"><rect x="308.71" y="158.23" width="185.49" height="138.66" style="fill:#fff"></rect><rect x="308.12" y="158.23" width="185.49" height="17.14" style="fill:#e0e0e0"></rect><circle cx="318.28" cy="166.8" r="2.47" style="fill:#fff"></circle><circle cx="326.6" cy="166.8" r="2.47" style="fill:#fff"></circle><circle cx="334.93" cy="166.8" r="2.47" style="fill:#fff"></circle><path d="M493.61,296.89s0-.87,0-2.54,0-4.14,0-7.37c0-6.45,0-15.92-.05-28,0-24.16-.07-58.8-.11-100.74l.21.21-185.47.05h0l.26-.26c0,49.83,0,97,0,138.66l-.24-.24,133.89.12,38,.06,10.08,0h2.6l.89,0h-3.43l-10,0-38,.06-134,.12h-.23v-.23c0-41.63,0-88.83,0-138.66V158h.28l185.47,0h.21v.22c0,42-.08,76.69-.11,100.88,0,12.07,0,21.52,0,28,0,3.21,0,5.66,0,7.32S493.61,296.89,493.61,296.89Z" style="fill:#263238"></path><path d="M483.39,241.79c0,.15-36.91.26-82.43.26s-82.45-.11-82.45-.26,36.9-.26,82.45-.26S483.39,241.65,483.39,241.79Z" style="fill:#e0e0e0"></path><path d="M483.39,227.56c0,.14-36.91.26-82.43.26s-82.45-.12-82.45-.26,36.9-.26,82.45-.26S483.39,227.41,483.39,227.56Z" style="fill:#e0e0e0"></path><path d="M483.39,213.32c0,.15-36.91.26-82.43.26s-82.45-.11-82.45-.26,36.9-.26,82.45-.26S483.39,213.18,483.39,213.32Z" style="fill:#e0e0e0"></path><path d="M483.39,199.09c0,.14-36.91.26-82.43.26s-82.45-.12-82.45-.26,36.9-.26,82.45-.26S483.39,198.94,483.39,199.09Z" style="fill:#e0e0e0"></path><rect x="332.46" y="235.34" width="13.72" height="27.59" style="fill:#F70656"></rect><rect x="381.7" y="235.34" width="13.72" height="27.59" style="fill:#455a64"></rect><rect x="456.38" y="244.74" width="13.72" height="18.18" style="fill:#455a64"></rect><rect x="430.93" y="222.27" width="13.72" height="40.65" style="fill:#e0e0e0"></rect><rect x="405.76" y="206.45" width="13.72" height="56.48" style="fill:#F70656"></rect><rect x="356.1" y="222.27" width="13.72" height="40.65" style="fill:#e0e0e0"></rect><path d="M481.43,262.93l-.62,0-1.8,0-6.92,0-25.47.08-84,.08-44.32,0H318v-.24c0-21.85.08-40.48.1-53.66,0-6.57.05-11.78.07-15.37,0-1.77,0-3.14,0-4.09,0-.45,0-.79,0-1.05a2.63,2.63,0,0,1,0-.36s0,.13,0,.36l0,1.05c0,.95,0,2.32,0,4.09,0,3.59,0,8.8.07,15.37,0,13.18.06,31.81.1,53.66l-.24-.25H362.6l84,.07,25.47.08,6.92.05,1.8,0Z" style="fill:#263238"></path><rect x="347.11" y="276.92" width="6.03" height="6.03" style="fill:#F70656"></rect><rect x="383.95" y="276.73" width="6.03" height="6.03" style="fill:#e0e0e0"></rect><rect x="423.8" y="276.92" width="6.03" height="6.03" style="fill:#455a64"></rect><path d="M373.1,279.74a63.68,63.68,0,0,1-8.21.26,63.68,63.68,0,0,1-8.21-.26,65.92,65.92,0,0,1,8.21-.26A65.92,65.92,0,0,1,373.1,279.74Z" style="fill:#263238"></path><path d="M409.66,279.74a63.68,63.68,0,0,1-8.21.26,63.68,63.68,0,0,1-8.21-.26,65.92,65.92,0,0,1,8.21-.26A65.92,65.92,0,0,1,409.66,279.74Z" style="fill:#263238"></path><path d="M448.58,279.74a129.6,129.6,0,0,1-16.41,0,129.6,129.6,0,0,1,16.41,0Z" style="fill:#263238"></path></g><g id="freepik--Character--inject-2"><path d="M573,115.25a2.56,2.56,0,0,0-1.71-.74,9.13,9.13,0,0,0-5.33,1,7.77,7.77,0,0,0,1.08-9.31,8.77,8.77,0,0,0-8.69-3.93,10.1,10.1,0,0,0-7.56,6,11.94,11.94,0,0,0,.43,9.8l5.56,1.46a15.64,15.64,0,0,0,8.74,2.69,4.62,4.62,0,0,0,3.45-1.14c.84-.92.69-2.72-.49-3.1a5.68,5.68,0,0,0,3.46,0C573.06,117.65,573.78,116.17,573,115.25Z" style="fill:#263238"></path><path d="M544.2,108A13.6,13.6,0,0,0,533.75,109a8.07,8.07,0,0,0-13.92,2.13A6.82,6.82,0,0,0,513,122.79a8.78,8.78,0,0,0-3.67,13.34c-2.63,1.27-3.08,4.83-2.69,7.72s1.22,6-.08,8.61c-1,2-3.07,3.27-4.48,5s-1.91,4.78,0,6a6.1,6.1,0,1,0,2.2,12,7.5,7.5,0,0,0,.8,7.17,12,12,0,0,0,6,4.37,17.92,17.92,0,0,0,19.57-5.52l21.58-66.73A13.6,13.6,0,0,0,544.2,108Z" style="fill:#263238"></path><path d="M554.47,126.44l.29-3.6-21.4-5.42c-6.64-1.11-14.26,5.15-15.08,11.82-.92,7.42-1.74,16.5-1.2,22.11,1.1,11.27,9.58,13.21,9.58,13.21L526,175.65l24.67,1.79Z" style="fill:#ae7461"></path><path d="M520.89,139.12a1.43,1.43,0,0,0,1.3,1.52,1.36,1.36,0,0,0,1.55-1.2,1.44,1.44,0,0,0-1.29-1.53A1.38,1.38,0,0,0,520.89,139.12Z" style="fill:#263238"></path><path d="M520.35,134.13c.17.19,1.3-.54,2.84-.45s2.63.94,2.81.76-.08-.43-.55-.81a3.88,3.88,0,0,0-2.23-.84,3.73,3.73,0,0,0-2.27.59C520.45,133.71,520.27,134,520.35,134.13Z" style="fill:#263238"></path><path d="M534.88,139.88a1.43,1.43,0,0,0,1.3,1.52,1.36,1.36,0,0,0,1.55-1.2,1.44,1.44,0,0,0-1.29-1.53A1.38,1.38,0,0,0,534.88,139.88Z" style="fill:#263238"></path><path d="M535.48,135.33c.17.19,1.31-.54,2.84-.45s2.63.94,2.81.76-.07-.43-.55-.82a4,4,0,0,0-2.23-.83,3.8,3.8,0,0,0-2.27.58C535.58,134.91,535.4,135.24,535.48,135.33Z" style="fill:#263238"></path><path d="M529.2,146.42a9.8,9.8,0,0,0-2.47-.6c-.39-.07-.76-.17-.81-.44a1.94,1.94,0,0,1,.33-1.15l1.35-2.93c1.87-4.17,3.25-7.61,3.08-7.68s-1.82,3.25-3.69,7.41c-.46,1-.89,2-1.3,2.95a2.29,2.29,0,0,0-.3,1.53,1,1,0,0,0,.62.62,2.48,2.48,0,0,0,.66.13A10.46,10.46,0,0,0,529.2,146.42Z" style="fill:#263238"></path><path d="M526.66,164.59a29.7,29.7,0,0,0,15.58-3.09s-4.25,7.59-15.74,5.87Z" style="fill:#6f4439"></path><path d="M535.84,130c.15.42,1.69.22,3.5.44s3.28.71,3.52.33c.11-.18-.15-.57-.74-1a5.79,5.79,0,0,0-2.6-.91,5.87,5.87,0,0,0-2.75.32C536.11,129.48,535.77,129.81,535.84,130Z" style="fill:#263238"></path><path d="M520.73,130.31c.24.37,1.33.08,2.61.15s2.34.4,2.61,0c.12-.17,0-.53-.47-.9a3.78,3.78,0,0,0-4.21-.16C520.79,129.78,520.62,130.13,520.73,130.31Z" style="fill:#263238"></path><path d="M518.32,121.21a18.73,18.73,0,0,1,10.19-6.73l18.08,2.27,1.54,0c.34-1.14,2.26-1.74,2.26-1.74,1.7-1.3,7.59-1.37,11.69,2.92,1.48,1.54,2.53,5.43,2.56,7.57,0,.81-.85,1.92-.17,2.37a21.92,21.92,0,0,0,2.46.17c4.6,1,7.47,5.09,6.64,11.18a3.25,3.25,0,0,0-.1.92,2.43,2.43,0,0,0,.81,1.2,8,8,0,0,1,1.27,8.88,9.22,9.22,0,0,0-1.23,2.67c-.28,1.73,1,3.28,2,4.75,3,4.38,3.58,10.74.12,14.72-.84,1-1.93,1.84-2.24,3.08a7.86,7.86,0,0,0-.1,1.88c0,3.18-1.65,6.74-4.76,7.41-1.73.37-3.83-.12-5.06,1.15a7.59,7.59,0,0,0-1.1,2,6.46,6.46,0,0,1-7.43,3.2c-2.81-.87-3.74-12.25-3.33-15.16-3.4-1.23-5.91-1.45-5.75-5.06,0,0,.52-6.22-.49-9.25s1-9.47,2.17-12.6-.22-10.41-.53-13.31a10.45,10.45,0,0,1,.24-2.48h0c.13-.71.29-1.5.49-2.35s.72-5,.71-5.76c-.05-2.74-3.45-1.28-6-.4a6.84,6.84,0,0,1-2,.35,6.92,6.92,0,0,1-5.58-2.65,10,10,0,0,1-9.86,2.69,26.76,26.76,0,0,1-4.67,5.44,9.17,9.17,0,0,1-6.62,2.28A18.77,18.77,0,0,1,518.32,121.21Z" style="fill:#263238"></path><path d="M530.32,150.15a2.75,2.75,0,0,1,2.39-1.13,2.46,2.46,0,0,1,1.76.84,1.55,1.55,0,0,1,.21,1.79,1.81,1.81,0,0,1-1.95.6,5.78,5.78,0,0,1-2-1.05,1.9,1.9,0,0,1-.46-.43.5.5,0,0,1,0-.56" style="fill:#6f4439"></path><path d="M534,147.37c-.25,0-.17,1.64-1.52,2.87s-3.1,1.14-3.1,1.37.41.3,1.15.28a4,4,0,0,0,2.59-1,3.54,3.54,0,0,0,1.16-2.4C534.31,147.75,534.11,147.35,534,147.37Z" style="fill:#263238"></path><path d="M499.69,441.49l2,21.19s-23.1,8.63-23.35,12.9l43.67.12,0-3.19-1.83-10.9-2.7-21.18Z" style="fill:#455a64"></path><path d="M514.87,459.4a1.82,1.82,0,0,1,1.27,2.08,1.75,1.75,0,0,1-2,1.27,1.92,1.92,0,0,1-1.33-2.21,1.82,1.82,0,0,1,2.28-1.09" style="fill:#e0e0e0"></path><path d="M522.05,475.7l0-3.19-41.88.8s-2,.87-1.76,2.27Z" style="fill:#263238"></path><path d="M501,462.46c0,.22,1.1.31,2.18,1s1.65,1.62,1.85,1.53-.13-1.35-1.45-2.17S501,462.26,501,462.46Z" style="fill:#263238"></path><path d="M496.32,464.41c-.05.21.9.58,1.64,1.5s1,1.9,1.18,1.89.35-1.25-.59-2.38S496.33,464.2,496.32,464.41Z" style="fill:#263238"></path><path d="M493.67,470c.2.05.5-1-.06-2.23s-1.59-1.67-1.68-1.49.54.82,1,1.81S493.46,470,493.67,470Z" style="fill:#263238"></path><path d="M499.45,457.36c.1.2,1.1-.1,2.33,0s2.2.47,2.31.28-.81-1-2.27-1S499.35,457.19,499.45,457.36Z" style="fill:#263238"></path><path d="M553.35,442.09l1.87,20.83s-22.74,8.34-23,12.53l42.89.38v-3.14L573.36,462l-2.52-20.82Z" style="fill:#455a64"></path><path d="M568.15,459.77a1.8,1.8,0,0,1,1.24,2.05,1.73,1.73,0,0,1-2,1.24,1.9,1.9,0,0,1-1.29-2.18,1.79,1.79,0,0,1,2.25-1.05" style="fill:#e0e0e0"></path><path d="M575.1,475.83v-3.14l-41.15.54s-2,.84-1.74,2.22Z" style="fill:#263238"></path><path d="M554.51,462.7c0,.21,1.08.31,2.13,1s1.61,1.6,1.81,1.52-.12-1.33-1.41-2.14S554.47,462.5,554.51,462.7Z" style="fill:#263238"></path><path d="M549.9,464.58c0,.21.88.58,1.6,1.49s.93,1.87,1.15,1.86.35-1.22-.57-2.33S549.91,464.38,549.9,464.58Z" style="fill:#263238"></path><path d="M547.26,470.09c.2,0,.5-1,0-2.2s-1.55-1.65-1.64-1.47.52.81,1,1.78S547.05,470.06,547.26,470.09Z" style="fill:#263238"></path><path d="M553,457.68c.09.2,1.07-.09,2.29,0s2.15.47,2.26.29-.79-.95-2.22-1S552.92,457.51,553,457.68Z" style="fill:#263238"></path><path d="M498.75,257.22s-10.35,30-10.71,52.27-.71,57.76,3.93,96.87,6.78,54.83,6.78,54.83H522.3a462.09,462.09,0,0,0,2.15-46.42c-.36-21.93-2.08-28.88,0-53s5.44-38.61,8.95-45.92c0,0,9.72-11.56,10.43-27.41A77.21,77.21,0,0,0,539,259Z" style="fill:#263238"></path><path d="M519.68,299.27c.39,1.21,7.38,50.35,12.48,72s10.77,27.42,11.77,45c1.14,20.28,6.71,44.85,6.71,44.85h25.08s-3.53-37.48-7.05-66.79-8.62-65.42-7.84-76.26,2.74-24.22,0-39.41-8.67-19.18-8.67-19.18l-21.28-1Z" style="fill:#263238"></path><path d="M543.29,271.17a5.59,5.59,0,0,1,.39.76,15.57,15.57,0,0,1,.85,2.31,30.75,30.75,0,0,1,.83,9,59.57,59.57,0,0,1-2.07,13.22,42.52,42.52,0,0,1-2.73,7.44,52.66,52.66,0,0,1-4.54,7.19c-3.4,4.7-5.09,10.05-6.36,14.88a104.75,104.75,0,0,0-2.38,13.11c-.47,3.77-.74,6.84-.95,9-.1,1-.19,1.83-.25,2.43a4.84,4.84,0,0,1-.12.85,5,5,0,0,1,0-.85c0-.61.08-1.43.14-2.45.15-2.12.37-5.2.79-9a101.25,101.25,0,0,1,2.28-13.19,64.08,64.08,0,0,1,2.37-7.56,38.29,38.29,0,0,1,1.75-3.82,39.14,39.14,0,0,1,2.28-3.67,53.15,53.15,0,0,0,4.5-7.13,41.87,41.87,0,0,0,2.74-7.34A60.16,60.16,0,0,0,545,283.2a31.81,31.81,0,0,0-.65-8.91,17.72,17.72,0,0,0-.75-2.32A4.65,4.65,0,0,1,543.29,271.17Z" style="fill:#455a64"></path><path d="M443.58,196c4.32,2.58,12.13,5,12.13,5l8.76-7s-6.26-11.44-8.28-14.69a16.71,16.71,0,0,1-1.63-3.46c-.68-2.44-2.47-1.4-2.8.52a10.46,10.46,0,0,0,.55,3.09,9.08,9.08,0,0,1,.61,3.71s-.64-.54-2.22-1.6-7.51-6-9.95-8c-3.66-3-5.5-1.15-5,0,.6,1.45,9.67,7.81,9.35,8.89,0,0-1.75,1-2,2.13a5.86,5.86,0,0,0,0,2.25s-1.64.16-2.07,1.21a4.1,4.1,0,0,0,.12,2.54s-1.52.14-1.69,1S440.32,194.07,443.58,196Z" style="fill:#ae7461"></path><path d="M463,190.88c.13.39,18.78,19.48,18.78,19.48s15.56-17.52,20.29-24S514,172,520.19,170.55,535,173.06,535,173.06l-11,22.52-13.83,19s-14.94,18.77-22.05,21.67S474.07,235,471,231.84s-21-30.45-21-30.45Z" style="fill:#F70656"></path><path d="M566.89,178,524,170.55s-11.91,21-16.37,43-9.53,44.05-9.53,44.05l39.63,4.89a45.64,45.64,0,0,0,12.41-.17l4.13-.63-3.39-14c5.66-14.15,9.8-26.23,12.25-36.21C568.44,189.86,566.89,178,566.89,178Z" style="fill:#F70656"></path><path d="M523,199a6.72,6.72,0,0,1-.7.94c-.55.66-1.22,1.48-2,2.45-1.7,2.08-4,5-6.56,8.18s-4.9,6.08-6.68,8.09c-.88,1-1.62,1.82-2.14,2.36a4.43,4.43,0,0,1-.85.8,4.73,4.73,0,0,1,.7-.94l2-2.46c1.7-2.07,4-5,6.55-8.18s4.91-6.07,6.68-8.09c.89-1,1.62-1.81,2.15-2.35A4.43,4.43,0,0,1,523,199Z" style="fill:#263238"></path><path d="M550.21,248.36a12.15,12.15,0,0,1-2.7.77,40.05,40.05,0,0,1-13.46.52,11.08,11.08,0,0,1-2.74-.57,23.36,23.36,0,0,1,2.78.2,54.49,54.49,0,0,0,6.69.16,56.84,56.84,0,0,0,6.67-.67A18.55,18.55,0,0,1,550.21,248.36Z" style="fill:#263238"></path><path d="M481.37,221.73a27.35,27.35,0,0,1-.18-5.43,29.14,29.14,0,0,1,.33-5.43,27.77,27.77,0,0,1,.19,5.43A29.51,29.51,0,0,1,481.37,221.73Z" style="fill:#263238"></path><g style="opacity:0.30000000000000004"><path d="M565.51,182.86l-26.81-2.39a4.47,4.47,0,0,0,2.84,5.84,8.68,8.68,0,0,0,6.89,12.94,8,8,0,0,1,2.13.27c1.49.53,2.2,2.16,3.09,3.47a8.12,8.12,0,0,0,5,3.46,5.91,5.91,0,0,0,5.64-1.87c1.31-1.6,1.53-3.8,1.63-5.87A103.57,103.57,0,0,0,565.51,182.86Z"></path></g><g style="opacity:0.30000000000000004"><path d="M506,219.87a18.95,18.95,0,0,0,15.16-19.36C515.54,206.59,510.8,214.39,506,219.87Z"></path></g><path d="M571.67,166.33l-22.88-25.46c.84,6.46-1.6,12.89-4.52,18.71-1.67,3.32-3.53,7.26-1.78,10.53a21.62,21.62,0,0,0-3.78,5.16,7.35,7.35,0,0,0-.24,6.21,4.48,4.48,0,0,0,5.32,2.41,7,7,0,0,0,9.63,8.66,11,11,0,0,0,4.28,6.66,7.32,7.32,0,0,0,7.66.5,5.53,5.53,0,0,0,2.26-7c5-1.11,8.18-6.54,8.33-11.69S573.93,171,571.67,166.33Z" style="fill:#263238"></path><path d="M524.35,124.35a1.22,1.22,0,0,1-.37.15,3.3,3.3,0,0,1-1.17.08,4.61,4.61,0,0,1-3.46-2.38,4.5,4.5,0,0,1-.48-3,5.94,5.94,0,0,1,1.57-3,6.5,6.5,0,0,1,3.28-1.88,8.71,8.71,0,0,1,4.06,0,11.31,11.31,0,0,1,2.23.79l-.35.14a9.34,9.34,0,0,1,4.79-4.94,8.81,8.81,0,0,1,5.52-.58,9.06,9.06,0,0,1,3.4,1.5,7,7,0,0,1,.76.64c.16.17.24.26.23.27s-.38-.29-1.1-.75a9.34,9.34,0,0,0-3.36-1.32,8.64,8.64,0,0,0-5.26.66,9,9,0,0,0-4.51,4.71l-.1.25-.25-.12a11.53,11.53,0,0,0-2.12-.75,8.51,8.51,0,0,0-3.82,0,6.12,6.12,0,0,0-3.05,1.72,5.63,5.63,0,0,0-1.5,2.8,4.12,4.12,0,0,0,.38,2.7,4.5,4.5,0,0,0,3.17,2.36A5.47,5.47,0,0,0,524.35,124.35Z" style="fill:#455a64"></path><path d="M572.85,140.36s.2-.47.44-1.35a9,9,0,0,0,.2-3.82,8.21,8.21,0,0,0-2.68-4.93,8.69,8.69,0,0,0-6.55-2.14l-.38,0,.11-.37a10.4,10.4,0,0,0,.39-2.35,10.68,10.68,0,0,0-2.48-7.37,10.32,10.32,0,0,0-5.51-3.3,11.06,11.06,0,0,0-4.39-.13c-1,.18-1.59.4-1.61.35a1.49,1.49,0,0,1,.39-.19,8.51,8.51,0,0,1,1.17-.36,10.78,10.78,0,0,1,10.31,3.31,11,11,0,0,1,2.64,7.72,10.37,10.37,0,0,1-.42,2.47l-.27-.33a9.08,9.08,0,0,1,6.91,2.3,8.52,8.52,0,0,1,2.72,5.23,8.68,8.68,0,0,1-.37,3.93,5.88,5.88,0,0,1-.42,1C572.94,140.26,572.87,140.37,572.85,140.36Z" style="fill:#455a64"></path><path d="M537.14,123.49a1.54,1.54,0,0,1-.64-.37,4.5,4.5,0,0,1-1.22-1.6,5.21,5.21,0,0,1-.41-3,5.6,5.6,0,0,1,1.79-3.21,6.39,6.39,0,0,1,3.32-1.58,7.41,7.41,0,0,1,4.82,1c.4.25.59.43.57.46a19.09,19.09,0,0,0-2.5-.9,7.42,7.42,0,0,0-2.81-.08,6.23,6.23,0,0,0-3,1.49,5.34,5.34,0,0,0-1.67,2.91,5.11,5.11,0,0,0,.28,2.75A6.43,6.43,0,0,0,537.14,123.49Z" style="fill:#455a64"></path><path d="M551,184a1,1,0,0,1-.32-.2,5.53,5.53,0,0,1-.81-.69,9.42,9.42,0,0,1-2.31-9.16,9.64,9.64,0,0,1,4.5-5.51,9,9,0,0,1,2.81-1l-.15.43A7.26,7.26,0,0,1,553,162a6.75,6.75,0,0,1,2.38-4.26,7,7,0,0,1,2.91-1.47,4.59,4.59,0,0,1,.87-.12c.2,0,.31,0,.31,0s-.41.08-1.13.29A7.23,7.23,0,0,0,555.6,158a6.52,6.52,0,0,0-2.16,4.07,6.87,6.87,0,0,0,1.67,5.41l.31.34-.45.09a9,9,0,0,0-2.65,1,9.29,9.29,0,0,0-4.29,5.2,9.08,9.08,0,0,0,.09,5.56,10,10,0,0,0,1.9,3.32C550.63,183.62,551,183.93,551,184Z" style="fill:#455a64"></path><path d="M550.63,128l-.71-3.23a23.57,23.57,0,0,0-2.3,15.16c.44,2.37,1.23,4.93.2,7.11-.7,1.5-2.14,2.52-3,4-1,1.81-.27,6.58-.54,7.51-.61,2.14-2.68,3.51-3.17,6.1s.13,5.7,2.45,6.94c4.38-7.21,8.85-14.7,9.88-23.07C554.32,141.53,552.74,134.57,550.63,128Z" style="fill:#263238"></path><path d="M563.89,145.23s-.13,0-.38,0a8.26,8.26,0,0,1-1.06-.12,7.24,7.24,0,0,1-3.58-1.61,5.58,5.58,0,0,1-1.56-2.27,4.22,4.22,0,0,1,.05-3.18,3.89,3.89,0,0,1,2.7-2.25,2.85,2.85,0,0,1,1.93.28,1.79,1.79,0,0,1,.93,1.81,1.48,1.48,0,0,1-.59,1,1.89,1.89,0,0,1-1,.31,3.8,3.8,0,0,1-1.87-.44,8.77,8.77,0,0,1-2.73-2.16,8.84,8.84,0,0,1-1.48-9.26,7.33,7.33,0,0,1,.5-.94c.13-.21.21-.31.22-.3s-.22.46-.53,1.32a9.38,9.38,0,0,0-.51,3.77,8.78,8.78,0,0,0,4.76,7.11,3.25,3.25,0,0,0,1.61.39,1.08,1.08,0,0,0,1.11-.83,1.31,1.31,0,0,0-.68-1.29,2.36,2.36,0,0,0-1.57-.22,3.43,3.43,0,0,0-2.36,1.95,3.83,3.83,0,0,0-.09,2.84,5.34,5.34,0,0,0,1.41,2.14,7.56,7.56,0,0,0,3.37,1.69C563.38,145.15,563.89,145.19,563.89,145.23Z" style="fill:#455a64"></path></g></svg>