<svg width="427" height="64" viewBox="0 0 427 64" fill="none" xmlns="http://www.w3.org/2000/svg">
<path d="M0 49.2308V0H17.9037C23.2702 0 27.7577 1.10943 31.3662 3.32828C34.9747 5.5009 37.6811 8.45937 39.4853 12.2037C41.2896 15.9018 42.1917 20.0159 42.1917 24.546C42.1917 29.5385 41.197 33.8837 39.2077 37.5818C37.2184 41.2799 34.3964 44.1459 30.7416 46.1798C27.1331 48.2138 22.8538 49.2308 17.9037 49.2308H0ZM32.5459 24.546C32.5459 21.3564 31.9676 18.5598 30.811 16.156C29.6545 13.706 27.989 11.8108 25.8146 10.4702C23.6403 9.08342 21.0033 8.39003 17.9037 8.39003H9.5764V40.8407H17.9037C21.0496 40.8407 23.7097 40.1473 25.884 38.7606C28.0584 37.3276 29.7007 35.3861 30.811 32.9361C31.9676 30.4399 32.5459 27.6432 32.5459 24.546Z" fill="white"/>
<path d="M45.7991 38.4832C45.7991 36.1257 46.4468 34.0686 47.7421 32.312C49.0838 30.5092 50.9343 29.1224 53.2937 28.1517C55.6531 27.1809 58.3595 26.6956 61.4128 26.6956C62.9395 26.6956 64.4893 26.8111 66.0622 27.0422C67.6351 27.2734 68.9999 27.6432 70.1565 28.1517V26.2102C70.1565 23.8989 69.4625 22.1192 68.0746 20.8711C66.733 19.623 64.7206 18.9989 62.0373 18.9989C60.048 18.9989 58.1513 19.3456 56.347 20.039C54.5428 20.7324 52.646 21.7494 50.6567 23.0899L47.6727 16.9881C50.0784 15.4164 52.5303 14.2376 55.0285 13.4518C57.573 12.6659 60.2331 12.273 63.0089 12.273C68.1903 12.273 72.2152 13.5674 75.0835 16.156C77.998 18.7447 79.4553 22.4428 79.4553 27.2503V38.8299C79.4553 39.8006 79.6172 40.494 79.9411 40.9101C80.3112 41.3261 80.8894 41.5803 81.6759 41.6728V49.2308C80.8432 49.3694 80.0799 49.485 79.3859 49.5775C78.7382 49.6699 78.1831 49.7161 77.7204 49.7161C75.8699 49.7161 74.4589 49.3001 73.4874 48.468C72.5621 47.636 71.9839 46.619 71.7525 45.4171L71.5444 43.545C69.9714 45.5789 68.0052 47.1506 65.6458 48.26C63.2864 49.3694 60.8808 49.9242 58.4288 49.9242C56.0232 49.9242 53.8488 49.4388 51.9058 48.468C50.009 47.4511 48.5055 46.0874 47.3952 44.377C46.3311 42.6204 45.7991 40.6558 45.7991 38.4832ZM68.4216 40.3554C68.9305 39.8006 69.3469 39.2459 69.6707 38.6912C69.9945 38.1365 70.1565 37.628 70.1565 37.1658V33.4908C69.0462 33.0285 67.8433 32.6818 66.548 32.4507C65.2526 32.1733 64.0266 32.0347 62.8701 32.0347C60.4644 32.0347 58.4751 32.5663 56.9022 33.6295C55.3755 34.6464 54.6122 36.0101 54.6122 37.7205C54.6122 38.645 54.8666 39.5233 55.3755 40.3554C55.8844 41.1874 56.6246 41.8577 57.5961 42.3662C58.5676 42.8747 59.7242 43.1289 61.0658 43.1289C62.4537 43.1289 63.8185 42.8747 65.1601 42.3662C66.5017 41.8115 67.5889 41.1412 68.4216 40.3554Z" fill="white"/>
<path d="M109.596 47.3586C108.809 47.6822 107.861 48.052 106.751 48.468C105.64 48.8841 104.437 49.2077 103.142 49.4388C101.893 49.7161 100.621 49.8548 99.3254 49.8548C97.6136 49.8548 96.0407 49.5543 94.6066 48.9534C93.1724 48.3525 92.0158 47.4048 91.1368 46.1105C90.3041 44.7699 89.8877 43.0365 89.8877 40.9101V20.039H85.0995V12.8971H89.8877V1.10943H99.1866V12.8971H106.82V20.039H99.1866V37.7898C99.2328 39.0379 99.5798 39.9393 100.227 40.494C100.875 41.0488 101.685 41.3261 102.656 41.3261C103.628 41.3261 104.576 41.1643 105.501 40.8407C106.427 40.5172 107.167 40.2398 107.722 40.0087L109.596 47.3586Z" fill="white"/>
<path d="M111.94 38.4832C111.94 36.1257 112.588 34.0686 113.884 32.312C115.225 30.5092 117.076 29.1224 119.435 28.1517C121.794 27.1809 124.501 26.6956 127.554 26.6956C129.081 26.6956 130.631 26.8111 132.204 27.0422C133.777 27.2734 135.141 27.6432 136.298 28.1517V26.2102C136.298 23.8989 135.604 22.1192 134.216 20.8711C132.874 19.623 130.862 18.9989 128.179 18.9989C126.189 18.9989 124.293 19.3456 122.488 20.039C120.684 20.7324 118.787 21.7494 116.798 23.0899L113.814 16.9881C116.22 15.4164 118.672 14.2376 121.17 13.4518C123.714 12.6659 126.374 12.273 129.15 12.273C134.332 12.273 138.357 13.5674 141.225 16.156C144.139 18.7447 145.597 22.4428 145.597 27.2503V38.8299C145.597 39.8006 145.759 40.494 146.082 40.9101C146.453 41.3261 147.031 41.5803 147.817 41.6728V49.2308C146.985 49.3694 146.221 49.485 145.527 49.5775C144.88 49.6699 144.324 49.7161 143.862 49.7161C142.011 49.7161 140.6 49.3001 139.629 48.468C138.703 47.636 138.125 46.619 137.894 45.4171L137.686 43.545C136.113 45.5789 134.147 47.1506 131.787 48.26C129.428 49.3694 127.022 49.9242 124.57 49.9242C122.165 49.9242 119.99 49.4388 118.047 48.468C116.15 47.4511 114.647 46.0874 113.537 44.377C112.472 42.6204 111.94 40.6558 111.94 38.4832ZM134.563 40.3554C135.072 39.8006 135.488 39.2459 135.812 38.6912C136.136 38.1365 136.298 37.628 136.298 37.1658V33.4908C135.188 33.0285 133.985 32.6818 132.689 32.4507C131.394 32.1733 130.168 32.0347 129.011 32.0347C126.606 32.0347 124.616 32.5663 123.044 33.6295C121.517 34.6464 120.754 36.0101 120.754 37.7205C120.754 38.645 121.008 39.5233 121.517 40.3554C122.026 41.1874 122.766 41.8577 123.737 42.3662C124.709 42.8747 125.866 43.1289 127.207 43.1289C128.595 43.1289 129.96 42.8747 131.301 42.3662C132.643 41.8115 133.73 41.1412 134.563 40.3554Z" fill="white"/>
<path d="M191.204 4.29903H173.647V49.2308H168.79V4.29903H151.233V0H191.204V4.29903Z" fill="white"/>
<path d="M209.42 17.2654C206.275 17.3579 203.499 18.2362 201.093 19.9003C198.734 21.5645 197.068 23.8527 196.097 26.7649V49.2308H191.378V13.1051H195.819V21.7725C197.068 19.23 198.711 17.173 200.746 15.6013C202.828 14.0296 205.025 13.1513 207.339 12.9664C207.801 12.9202 208.194 12.8971 208.518 12.8971C208.888 12.8971 209.189 12.9202 209.42 12.9664V17.2654Z" fill="white"/>
<path d="M212.656 38.8299C212.656 36.5648 213.304 34.6233 214.599 33.0054C215.895 31.3413 217.676 30.0701 219.943 29.1918C222.256 28.2672 224.916 27.805 227.923 27.805C229.681 27.805 231.509 27.9437 233.405 28.221C235.302 28.4984 236.991 28.9144 238.471 29.4691V26.4182C238.471 23.3673 237.569 20.9404 235.765 19.1376C233.96 17.3348 231.462 16.4334 228.27 16.4334C226.327 16.4334 224.407 16.8032 222.51 17.5428C220.66 18.2362 218.717 19.2763 216.681 20.6631L214.877 17.3348C217.236 15.7169 219.55 14.515 221.816 13.7291C224.083 12.8971 226.396 12.481 228.756 12.481C233.197 12.481 236.713 13.7523 239.304 16.2947C241.895 18.8371 243.19 22.3503 243.19 26.8342V43.545C243.19 44.1921 243.329 44.6775 243.606 45.0011C243.884 45.2784 244.323 45.4402 244.925 45.4865V49.2308C244.416 49.277 243.976 49.3232 243.606 49.3694C243.236 49.4157 242.959 49.4157 242.774 49.3694C241.617 49.3232 240.738 48.9534 240.137 48.26C239.535 47.5666 239.211 46.827 239.165 46.0412L239.096 43.4063C237.476 45.4865 235.371 47.1044 232.781 48.26C230.19 49.3694 227.553 49.9242 224.87 49.9242C222.557 49.9242 220.452 49.4388 218.555 48.468C216.704 47.4511 215.247 46.1105 214.183 44.4464C213.165 42.736 212.656 40.8638 212.656 38.8299ZM236.875 41.6035C237.384 40.9563 237.777 40.3322 238.055 39.7313C238.332 39.1304 238.471 38.5988 238.471 38.1365V32.8667C236.898 32.2658 235.256 31.8035 233.544 31.48C231.879 31.1564 230.19 30.9946 228.478 30.9946C225.101 30.9946 222.372 31.6649 220.29 33.0054C218.208 34.346 217.167 36.1719 217.167 38.4832C217.167 39.8238 217.514 41.095 218.208 42.2969C218.902 43.4525 219.92 44.4233 221.261 45.2091C222.603 45.9487 224.176 46.3185 225.98 46.3185C228.247 46.3185 230.352 45.8794 232.295 45.0011C234.284 44.1228 235.811 42.9902 236.875 41.6035Z" fill="white"/>
<path d="M307.166 49.2308H302.447V29.0531C302.447 24.8465 301.776 21.7494 300.435 19.7616C299.093 17.7739 297.104 16.7801 294.467 16.7801C291.737 16.7801 289.285 17.7508 287.111 19.6923C284.983 21.6338 283.479 24.13 282.6 27.1809V49.2308H277.882V29.0531C277.882 24.8003 277.234 21.7031 275.939 19.7616C274.643 17.7739 272.654 16.7801 269.971 16.7801C267.287 16.7801 264.859 17.7277 262.684 19.623C260.51 21.5182 258.983 24.0144 258.104 27.1116V49.2308H253.385V13.1051H257.688V21.2871C259.215 18.4673 261.158 16.2947 263.517 14.7692C265.923 13.2438 268.583 12.481 271.497 12.481C274.504 12.481 276.933 13.3362 278.784 15.0466C280.634 16.757 281.768 18.9989 282.184 21.7725C283.849 18.7216 285.839 16.4103 288.152 14.8386C290.511 13.2669 293.171 12.481 296.132 12.481C298.168 12.481 299.88 12.8508 301.267 13.5905C302.702 14.3301 303.835 15.3933 304.668 16.7801C305.547 18.1206 306.171 19.7616 306.541 21.7031C306.958 23.5984 307.166 25.7248 307.166 28.0823V49.2308Z" fill="white"/>
<path d="M335.614 49.9242C332.607 49.9242 329.9 49.1383 327.495 47.5666C325.135 45.9949 323.262 44.0534 321.874 41.7421V64H317.155V13.1051H321.388V20.1083C322.822 17.8433 324.742 16.0173 327.148 14.6306C329.553 13.1975 332.121 12.481 334.85 12.481C337.349 12.481 339.639 13.0126 341.72 14.0758C343.802 15.0928 345.607 16.4796 347.133 18.2362C348.66 19.9928 349.84 22.0036 350.672 24.2687C351.551 26.4875 351.991 28.7988 351.991 31.2026C351.991 34.5771 351.297 37.6974 349.909 40.5634C348.567 43.3832 346.671 45.6482 344.219 47.3586C341.767 49.069 338.898 49.9242 335.614 49.9242ZM334.295 45.7638C336.285 45.7638 338.066 45.3709 339.639 44.585C341.212 43.753 342.553 42.6436 343.663 41.2568C344.82 39.87 345.699 38.3214 346.3 36.611C346.902 34.8545 347.203 33.0516 347.203 31.2026C347.203 29.2611 346.856 27.4121 346.162 25.6555C345.514 23.8989 344.566 22.3503 343.317 21.0098C342.067 19.6692 340.633 18.606 339.014 17.8202C337.395 17.0343 335.637 16.6414 333.74 16.6414C332.537 16.6414 331.288 16.8725 329.993 17.3348C328.697 17.797 327.448 18.4673 326.246 19.3456C325.089 20.1777 324.117 21.1253 323.331 22.1885C322.545 23.2517 322.059 24.3843 321.874 25.5861V36.6804C322.614 38.3908 323.609 39.9393 324.858 41.3261C326.107 42.6667 327.541 43.753 329.16 44.585C330.826 45.3709 332.537 45.7638 334.295 45.7638Z" fill="white"/>
<path d="M375.39 49.9242C372.799 49.9242 370.393 49.4388 368.173 48.468C365.998 47.4511 364.102 46.0874 362.482 44.377C360.909 42.6204 359.683 40.6327 358.804 38.4139C357.925 36.1488 357.486 33.7681 357.486 31.2719C357.486 28.6833 357.925 26.2795 358.804 24.0607C359.683 21.7956 360.933 19.8079 362.552 18.0975C364.171 16.3409 366.068 14.9772 368.242 14.0065C370.463 12.9895 372.868 12.481 375.459 12.481C378.05 12.481 380.432 12.9895 382.607 14.0065C384.781 14.9772 386.678 16.3409 388.297 18.0975C389.916 19.8079 391.165 21.7956 392.044 24.0607C392.923 26.2795 393.363 28.6833 393.363 31.2719C393.363 33.7681 392.923 36.1488 392.044 38.4139C391.165 40.6327 389.916 42.6204 388.297 44.377C386.724 46.0874 384.827 47.4511 382.607 48.468C380.432 49.4388 378.027 49.9242 375.39 49.9242ZM362.274 31.3413C362.274 34.0224 362.852 36.4724 364.009 38.6912C365.212 40.8638 366.808 42.5973 368.797 43.8917C370.787 45.1398 372.984 45.7638 375.39 45.7638C377.795 45.7638 379.993 45.1166 381.982 43.8223C383.971 42.528 385.567 40.7714 386.77 38.5525C387.973 36.2875 388.575 33.8375 388.575 31.2026C388.575 28.5215 387.973 26.0715 386.77 23.8527C385.567 21.6338 383.971 19.8772 381.982 18.5829C379.993 17.2886 377.795 16.6414 375.39 16.6414C372.984 16.6414 370.787 17.3117 368.797 18.6522C366.854 19.9928 365.281 21.7725 364.078 23.9913C362.876 26.164 362.274 28.6139 362.274 31.3413Z" fill="white"/>
<path d="M413.121 49.9242C410.16 49.9242 407.408 49.4388 404.863 48.468C402.319 47.4973 400.121 46.0181 398.271 44.0303L400.214 40.7021C402.249 42.5973 404.285 43.9841 406.32 44.8624C408.402 45.6945 410.6 46.1105 412.913 46.1105C415.735 46.1105 418.025 45.5558 419.783 44.4464C421.541 43.2907 422.42 41.6497 422.42 39.5233C422.42 38.0903 421.98 37.004 421.101 36.2644C420.269 35.4785 419.043 34.8545 417.424 34.3922C415.851 33.8837 413.954 33.3521 411.733 32.7974C409.235 32.104 407.13 31.3875 405.418 30.6479C403.753 29.862 402.481 28.8913 401.602 27.7356C400.769 26.5338 400.353 24.9852 400.353 23.0899C400.353 20.7324 400.931 18.7909 402.087 17.2654C403.29 15.6938 404.909 14.515 406.945 13.7291C409.027 12.8971 411.34 12.481 413.884 12.481C416.66 12.481 419.112 12.9202 421.24 13.7985C423.368 14.6768 425.103 15.9018 426.445 17.4735L424.155 20.6631C422.859 19.1838 421.31 18.0975 419.505 17.4041C417.747 16.6645 415.781 16.2947 413.607 16.2947C412.127 16.2947 410.715 16.5027 409.374 16.9187C408.032 17.2886 406.922 17.9357 406.043 18.8602C405.21 19.7385 404.794 20.9635 404.794 22.5352C404.794 23.8295 405.118 24.8465 405.765 25.5861C406.413 26.2795 407.385 26.8805 408.68 27.3889C409.975 27.8512 411.571 28.3597 413.468 28.9144C416.198 29.654 418.58 30.4168 420.616 31.2026C422.651 31.9422 424.224 32.913 425.335 34.1148C426.445 35.3167 427 37.004 427 39.1766C427 42.5511 425.728 45.186 423.183 47.0813C420.639 48.9765 417.285 49.9242 413.121 49.9242Z" fill="white"/>
</svg>
