<svg width="453" height="393" viewBox="0 0 453 393" fill="none" xmlns="http://www.w3.org/2000/svg">
<path d="M271.979 88.0694C271.979 88.0694 275.645 94.0003 267.843 100.062" stroke="black" stroke-width="4.82" stroke-miterlimit="10"/>
<path d="M289.066 92.067C289.066 92.067 291.465 99.6927 281.788 104.612C278.365 106.353 274.608 102.689 276.225 99.1721C276.253 99.1205 276.276 99.0648 276.304 99.0092" stroke="black" stroke-width="4.82" stroke-miterlimit="10"/>
<path d="M291.828 101.561C291.828 101.561 289.752 108.701 284.071 109.044C279.045 109.345 279.889 104.274 279.889 104.274" stroke="black" stroke-width="4.82" stroke-miterlimit="10"/>
<path d="M281.516 108.557C281.516 108.557 279.6 110.966 280.649 113.252C281.697 115.539 284.3 116.071 286.831 115.071" stroke="black" stroke-width="4.82" stroke-miterlimit="10"/>
<path d="M286.831 87.5697L281.834 93.0664" stroke="black" stroke-width="4.82" stroke-miterlimit="10"/>
<path opacity="0.54" d="M386.938 158.167L421.405 69.9726C421.832 68.266 421.864 66.4849 421.499 64.7642C421.134 63.0435 420.38 61.4285 419.297 60.0418C418.213 58.6555 416.827 57.5335 415.244 56.762C413.661 55.9901 411.923 55.5891 410.162 55.5887H273.241C270.167 55.5884 267.182 56.6214 264.768 58.5219C262.353 60.422 260.65 63.0791 259.932 66.0643L222.191 154.24C221.781 155.941 221.764 157.714 222.138 159.423C222.514 161.133 223.273 162.736 224.357 164.111C225.442 165.485 226.825 166.596 228.402 167.36C229.979 168.125 231.709 168.522 233.461 168.522H373.656C376.71 168.522 379.675 167.503 382.082 165.627C384.488 163.751 386.198 161.125 386.938 158.167Z" fill="white"/>
<path d="M386.938 158.167L421.405 69.9726C421.832 68.266 421.864 66.4849 421.499 64.7642C421.134 63.0435 420.38 61.4285 419.297 60.0418C418.213 58.6555 416.827 57.5335 415.244 56.762C413.661 55.9901 411.923 55.5891 410.162 55.5887H273.241C270.167 55.5884 267.182 56.6214 264.768 58.5219C262.353 60.422 260.65 63.0791 259.932 66.0643L222.191 154.24C221.781 155.941 221.764 157.714 222.138 159.423C222.514 161.133 223.273 162.736 224.357 164.111C225.442 165.485 226.825 166.596 228.402 167.36C229.979 168.125 231.709 168.522 233.461 168.522H373.656C376.71 168.522 379.675 167.503 382.082 165.627C384.488 163.751 386.198 161.125 386.938 158.167Z" fill="#F70656"/>
<path d="M386.938 158.167L421.405 69.9726C421.832 68.266 421.864 66.4849 421.499 64.7642C421.134 63.0435 420.381 61.4285 419.297 60.0418C418.213 58.6555 416.827 57.5335 415.244 56.762C413.661 55.9901 411.923 55.5891 410.162 55.5887H273.241C270.167 55.5884 267.182 56.6214 264.768 58.5219C262.353 60.422 260.65 63.0791 259.932 66.0643L222.191 154.24C221.781 155.941 221.764 157.714 222.138 159.423C222.514 161.133 223.273 162.736 224.357 164.111C225.442 165.485 226.825 166.596 228.402 167.36C229.979 168.125 231.709 168.522 233.461 168.522H373.656C376.71 168.522 379.675 167.503 382.082 165.627C384.488 163.751 386.198 161.125 386.938 158.167Z" stroke="white" stroke-width="4.82" stroke-linecap="square" stroke-linejoin="round"/>
<path d="M286.071 75.0222C287.748 72.5063 290.495 71.3878 292.204 72.522C293.913 73.6563 293.937 76.6196 292.259 79.1354C291.998 79.522 291.704 79.8847 291.379 80.2187L303.815 106.445C305.779 105.122 307.98 104.796 309.543 105.836C310.553 106.507 311.115 107.649 311.292 108.976L319.787 106.111L327.217 103.63C328.003 103.36 328.832 103.101 329.641 102.845C329.946 101.934 330.37 101.067 330.902 100.267C333.26 96.7345 337.114 95.1645 339.511 96.7345C341.908 98.3044 341.94 102.414 339.649 105.926L353.794 125.249C356.878 122.721 360.513 121.94 363.031 123.612C366.458 125.888 366.509 131.83 363.145 136.882C363.012 137.082 362.858 137.247 362.717 137.439L372.147 150.309C372.175 150.348 372.21 150.395 372.233 150.434C372.472 150.793 372.637 151.196 372.72 151.619C372.802 152.042 372.8 152.477 372.715 152.9C372.629 153.322 372.461 153.723 372.22 154.081C371.979 154.438 371.67 154.745 371.31 154.983C370.95 155.221 370.547 155.386 370.124 155.469C369.7 155.551 369.265 155.55 368.842 155.464C368.419 155.378 368.017 155.21 367.659 154.969C367.302 154.729 366.995 154.42 366.756 154.061L358.383 141.442C355.735 142.977 352.922 143.271 350.859 141.898C347.582 139.723 347.425 134.213 350.344 129.338L336.784 108.902C334.784 110.259 332.576 110.605 330.993 109.557C330.108 108.934 329.506 107.987 329.315 106.923C328.977 107.014 328.643 107.112 328.305 107.206L320.749 109.267L311.08 111.869C310.784 113.027 310.295 114.126 309.634 115.122C307.276 118.655 303.426 120.225 301.025 118.635C298.624 117.046 298.589 112.881 300.942 109.345C301.293 108.832 301.688 108.35 302.121 107.905L290.283 81.1646C288.856 82.134 287.281 82.3852 286.153 81.6356C284.42 80.5052 284.393 77.5419 286.071 75.0222Z" fill="white"/>
<path d="M376.278 76.5763H394.228C395.05 76.5763 395.853 76.3186 396.541 75.8355C397.228 75.352 397.77 74.6638 398.1 73.8548C398.205 73.6066 398.261 73.3378 398.265 73.0648C398.261 72.5375 398.064 72.0333 397.716 71.6615C397.368 71.2896 396.899 71.0808 396.408 71.0795H377.313C378.224 72.7132 377.77 74.9715 376.278 76.5763Z" fill="#D7E8F0"/>
<path d="M364.285 74.5951C364.286 75.1212 364.487 75.625 364.843 75.9964C365.198 76.3678 365.681 76.5763 366.184 76.5763H376.226C377.761 74.9715 378.227 72.7132 377.306 71.0795H368.438C367.594 71.0791 366.768 71.3355 366.061 71.817C365.354 72.2988 364.796 72.9854 364.455 73.7927C364.348 74.0459 364.29 74.3184 364.285 74.5951Z" fill="#620323"/>
<path d="M368.754 76.3744C368.807 76.4729 368.869 76.5663 368.939 76.6541C370.278 78.397 373.183 78.5694 375.443 76.9912C375.711 76.8035 375.964 76.5974 376.2 76.3744C377.76 74.8881 378.235 72.7965 377.298 71.2834C377.245 71.1864 377.183 71.0941 377.113 71.0075C375.785 69.2531 372.881 69.0922 370.62 70.6589C370.349 70.8497 370.093 71.0585 369.852 71.2834C368.303 72.7735 367.829 74.8536 368.754 76.3744Z" fill="white"/>
<path d="M359.788 86.0868C359.792 86.6141 359.992 87.1183 360.344 87.4895C360.695 87.8608 361.171 88.0694 361.666 88.0694H380.725C379.803 86.4138 380.262 84.1787 381.775 82.5727H363.883C363.053 82.5727 362.24 82.8306 361.544 83.314C360.849 83.7979 360.3 84.4866 359.967 85.2962C359.858 85.5442 359.797 85.8132 359.788 86.0868Z" fill="#620323"/>
<path d="M380.751 88.0694H389.688C390.517 88.0703 391.328 87.8145 392.022 87.3331C392.717 86.8517 393.265 86.1654 393.601 85.3583C393.708 85.1058 393.765 84.8322 393.768 84.5553C393.768 84.2946 393.72 84.0367 393.627 83.7958C393.534 83.5549 393.397 83.3364 393.224 83.1522C393.051 82.968 392.845 82.8219 392.619 82.7225C392.393 82.6228 392.151 82.5719 391.907 82.5727H381.8C380.285 84.1787 379.83 86.4262 380.751 88.0694Z" fill="#D7E8F0"/>
<path d="M380.742 87.8618C380.781 87.9622 380.836 88.0564 380.902 88.1415C382.165 89.896 384.919 90.0568 387.059 88.4901C387.318 88.3008 387.562 88.0909 387.788 87.8618C389.256 86.3755 389.695 84.2954 388.829 82.7746C388.78 82.6761 388.722 82.5827 388.657 82.495C387.383 80.752 384.629 80.5796 382.489 82.1578C382.234 82.3436 381.994 82.5497 381.772 82.7746C380.284 84.2609 379.838 86.341 380.742 87.8618Z" fill="white"/>
<path d="M374.279 99.0629H385.686C386.516 99.0633 387.328 98.8301 388.024 98.3921C388.719 97.9544 389.268 97.3303 389.603 96.5963C389.71 96.3707 389.767 96.126 389.77 95.8782C389.768 95.3973 389.569 94.937 389.217 94.5975C388.865 94.258 388.389 94.0666 387.892 94.0659H375.341C376.236 95.5586 375.777 97.6003 374.279 99.0629Z" fill="#620323"/>
<path d="M355.79 97.2694C355.792 97.7461 355.99 98.203 356.339 98.5391C356.689 98.8756 357.163 99.0636 357.656 99.0629H374.267C375.764 97.6003 376.211 95.5586 375.328 94.0659H359.871C359.041 94.0659 358.229 94.3001 357.534 94.7393C356.838 95.1788 356.291 95.8045 355.957 96.5399C355.851 96.7693 355.794 97.0174 355.79 97.2694Z" fill="#D7E8F0"/>
<path d="M367.244 99.357C367.295 99.454 367.353 99.5464 367.42 99.6331C368.677 101.389 371.428 101.551 373.569 99.9821C373.826 99.7911 374.069 99.5821 374.297 99.357C375.764 97.8652 376.202 95.7828 375.337 94.2604C375.287 94.1618 375.229 94.0683 375.162 93.9804C373.893 92.2356 371.142 92.086 369.001 93.643C368.748 93.8309 368.508 94.0372 368.285 94.2604C366.806 95.7483 366.341 97.8422 367.244 99.357Z" fill="white"/>
<path d="M299.823 153.031H311.23C312.06 153.032 312.872 152.798 313.567 152.36C314.263 151.922 314.811 151.299 315.146 150.564C315.276 150.29 315.332 149.988 315.309 149.687C315.286 149.386 315.184 149.095 315.013 148.842C314.842 148.59 314.608 148.383 314.332 148.242C314.056 148.1 313.747 148.029 313.435 148.034H300.889C301.78 149.527 301.321 151.568 299.823 153.031Z" fill="#620323"/>
<path d="M254.351 151.237C254.351 151.473 254.4 151.707 254.494 151.925C254.588 152.143 254.727 152.341 254.9 152.507C255.074 152.674 255.28 152.806 255.506 152.895C255.733 152.985 255.976 153.031 256.22 153.031H299.805C301.308 151.568 301.757 149.527 300.871 148.034H258.449C257.616 148.034 256.8 148.268 256.102 148.707C255.404 149.147 254.854 149.772 254.518 150.508C254.411 150.737 254.354 150.985 254.351 151.237Z" fill="#D7E8F0"/>
<path d="M292.782 153.223C292.833 153.326 292.891 153.424 292.958 153.516C294.216 155.379 296.969 155.546 299.112 153.885C299.369 153.683 299.612 153.462 299.84 153.223C301.308 151.644 301.747 149.44 300.881 147.828C300.831 147.724 300.773 147.625 300.706 147.532C299.432 145.684 296.679 145.526 294.54 147.174C294.287 147.373 294.047 147.592 293.823 147.828C292.344 149.403 291.894 151.62 292.782 153.223Z" fill="white"/>
<path d="M82.887 106.059C81.4878 108.397 78.5596 109.387 76.0411 109.891C72.823 110.551 69.495 110.726 66.2369 111.016L64.343 111.48C63.9842 111.591 63.6514 111.771 63.3626 112.011C63.0743 112.251 62.8359 112.545 62.661 112.877C62.4866 113.208 62.3792 113.572 62.3452 113.946C62.3117 114.319 62.3517 114.696 62.4641 115.053C63.6359 119.086 65.248 122.977 67.2713 126.656L64.2731 129.655C63.4236 128.505 63.3836 126.492 62.2443 126.686C61.1499 125.592 59.8507 125.057 58.5065 126.522C55.8781 129.395 56.3028 135.366 60.1655 137.015L59.301 141.318C59.0027 142.822 58.1922 144.177 57.0079 145.15C55.8236 146.124 54.338 146.658 52.8049 146.66L53.4695 141.568C48.9722 143.841 43.8702 138.924 44.225 134.872C44.4548 132.093 43.8252 130.174 41.7714 128.161C41.6365 128.026 42.461 127.526 42.3361 127.391C41.7565 125.637 41.6765 123.588 42.2512 122.429C43.2506 120.36 46.1938 119.151 44.8396 116.892C44.245 115.908 43.8112 114.835 43.5554 113.714C43.283 112.228 43.333 110.701 43.7013 109.235C44.0691 107.77 44.7472 106.401 45.6891 105.219C47.6879 102.821 50.936 103.465 53.5894 102.616C56.8225 101.616 58.3166 98.1534 61.6996 97.084C63.3836 96.5494 64.9427 96.7942 66.6267 97.179C68.0508 97.5088 69.46 97.8786 70.8592 98.3183C72.2583 98.7581 73.4876 99.1228 74.8568 98.7131C76.6657 98.2134 78.0599 96.5244 80.0337 96.5094C81.0181 96.4869 81.9826 96.7947 82.7721 97.3839C84.2312 100.007 84.2412 103.815 82.887 106.059Z" fill="#620323"/>
<path d="M21.0448 173.719C21.0448 173.719 -33.3578 113.714 46.7595 83.772C51.4052 82.0685 56.2473 80.9572 61.1709 80.4639C73.9583 79.1048 102.227 74.2726 105.485 57.9523" stroke="#CCDDE2" stroke-width="4.11" stroke-miterlimit="10"/>
<path d="M249.418 89.7194V89.7034" stroke="#CCDDE2" stroke-width="4.11" stroke-miterlimit="10"/>
<path d="M106.673 197.76V197.744" stroke="black" stroke-width="4.11" stroke-miterlimit="10"/>
<path d="M64.1386 129.255C63.6059 128.334 62.9723 127.476 62.2497 126.696C61.1553 125.602 59.8561 125.067 58.5119 126.532C55.8835 129.405 56.3082 135.376 60.1709 137.025L59.3064 141.328C59.0081 142.832 58.1981 144.186 57.0133 145.16C55.829 146.134 54.3434 146.668 52.8103 146.67" stroke="black" stroke-width="4.11" stroke-linecap="round" stroke-linejoin="round"/>
<path d="M50.3917 165.708C50.6116 164.039 51.1563 159.657 51.681 155.479C52.1807 151.607 52.6254 147.879 52.8003 146.65L53.4699 141.568" stroke="black" stroke-width="4.11" stroke-linecap="round" stroke-linejoin="round"/>
<path d="M81.2434 115.633C81.2434 115.633 74.8622 115.948 73.6279 121.23" stroke="black" stroke-width="4.11" stroke-miterlimit="10"/>
<path d="M83.5631 129.59C85.3021 129.545 87.5607 129.29 88.3802 127.526L83.9829 122.674C82.91 121.485 82.2754 119.966 82.1839 118.366C82.009 115.683 82.3238 111.426 79.7554 108.592" stroke="black" stroke-width="4.11" stroke-miterlimit="10"/>
<path d="M79.8024 122.872C80.5224 122.076 80.5584 120.935 79.8823 120.325C79.2067 119.714 78.0754 119.865 77.3558 120.661C76.6358 121.457 76.5998 122.598 77.2759 123.209C77.9515 123.819 79.0828 123.669 79.8024 122.872Z" fill="black"/>
<path d="M79.3691 161.461L76.056 145.4" stroke="black" stroke-width="4.11" stroke-miterlimit="10"/>
<path d="M163.355 233.743L142.003 251.202C167.693 290.379 148.249 297.57 148.249 297.57C144.478 298.292 140.669 298.804 136.841 299.104C118.272 300.443 99.2233 295.651 83.9174 284.917C52.9359 263.18 25.9521 219.676 40.3433 181.799C41.5546 178.595 43.0337 175.499 44.7657 172.544C46.2583 169.976 48.1587 167.667 50.3924 165.708C54.302 162.286 59.1167 160.065 64.2581 159.312C69.3996 158.56 74.6489 159.308 79.3751 161.466C81.1846 162.292 82.896 163.318 84.4771 164.524C92.5673 170.715 99.9229 179.515 106.264 188.75C111.895 197.101 116.961 205.818 121.43 214.844C122.664 217.308 123.784 219.636 124.773 221.77C133.743 218.142 141.263 211.981 148.259 205.325C139.799 221.115 163.355 233.743 163.355 233.743Z" fill="#620323"/>
<path d="M148.414 246.515C148.004 246.83 147.579 247.16 147.154 247.475" stroke="black" stroke-width="4.11" stroke-miterlimit="10"/>
<path d="M85.2871 180.14C90.9502 190.983 96.6139 201.847 102.277 212.73C106.549 220.945 113.77 226.017 123.939 222.125C135.003 217.887 143.927 209.787 152.182 201.532C160.437 193.277 168.802 185.382 180.72 183.253C196.126 180.499 210.703 188.895 221.196 199.503C222.004 200.312 222.515 201.37 222.646 202.505C222.777 203.641 222.522 204.788 221.921 205.759C221.535 206.381 221.02 206.913 220.411 207.318C219.801 207.722 219.112 207.991 218.389 208.105C217.666 208.22 216.927 208.177 216.223 207.98C215.518 207.783 214.864 207.436 214.305 206.964C209.333 202.721 201.243 196.585 195.617 196.505" stroke="black" stroke-width="4.11" stroke-miterlimit="10"/>
<path d="M180.264 211.061C181.993 212.216 184.391 213.495 186.39 213.495" stroke="black" stroke-width="4.11" stroke-miterlimit="10"/>
<path d="M202.422 198.609C206.109 200.433 207.454 205.769 204.85 208.958C201.549 213.054 197.413 216.399 192.717 218.772C187.58 221.335 184.282 219.771 179.225 216.643" stroke="black" stroke-width="4.11" stroke-miterlimit="10"/>
<path d="M193.886 203.391C193.886 203.391 201.192 205.2 200.997 212.291C200.984 212.593 200.93 212.892 200.837 213.18" stroke="black" stroke-width="4.11" stroke-miterlimit="10"/>
<path d="M188.726 207.858C188.726 207.858 198.525 214.189 193.863 218.172" stroke="black" stroke-width="4.11" stroke-miterlimit="10"/>
<path d="M378.016 232.673C366.473 264.4 334.157 265.294 330.459 265.294C332.008 262.031 332.428 256.299 329.035 246.255C331.308 242.936 332.505 238.998 332.463 234.975C332.421 230.952 331.142 227.04 328.8 223.769C328.845 223.729 328.87 223.674 328.91 223.634C330.526 223.535 332.13 223.293 333.702 222.909C339.279 221.58 350.273 218.662 358.997 214.554C364.914 211.761 371.815 216.238 371.31 222.769C371.31 222.854 371.31 222.934 371.28 223.029C372.435 223.029 373.574 223.307 374.598 223.84C375.622 224.374 376.503 225.147 377.165 226.094C377.826 227.041 378.248 228.134 378.397 229.279C378.545 230.425 378.415 231.59 378.016 232.673Z" fill="#620323"/>
<path d="M229.89 307.084C226.002 313.755 219.951 319.437 214.104 324.394C193.522 341.814 166.633 350.658 139.649 351.003C112.575 350.658 85.5859 341.784 64.9082 324.519C-0.428033 269.961 11.38 205.545 21.9487 175.717C22.3209 174.686 22.8248 173.707 23.4478 172.804C24.2741 171.595 25.3469 170.575 26.5958 169.81C27.8446 169.045 29.2409 168.554 30.6935 168.367C36.2402 169.131 41.2772 173.734 40.3878 180.859C40.3878 181.134 40.2778 181.514 40.2528 181.789C25.8713 219.666 52.8653 263.17 83.8269 284.907C97.8736 294.767 115.073 299.614 132.163 299.299H132.358C133.824 299.269 135.288 299.201 136.75 299.094C146.35 298.394 155.679 296.096 164.919 293.312C175.762 290.069 186.486 286.137 197.319 283.383C201.127 282.414 204.945 281.479 208.783 280.605C210.997 280.151 213.263 279.994 215.519 280.14C228.826 281.04 238.175 292.873 229.89 307.084Z" fill="#D7E8F0"/>
<path d="M233.179 307.084C229.291 313.755 223.235 319.437 217.389 324.394C195.986 342.523 167.748 351.378 139.635 351.003C112.561 350.658 85.5719 341.784 64.8942 324.519C-0.427194 269.961 11.3808 205.545 21.9495 175.717C22.3217 174.686 22.8256 173.707 23.4486 172.804C24.275 171.595 25.3478 170.575 26.5966 169.81C27.8453 169.045 29.2419 168.554 30.6945 168.367C36.2412 169.131 41.2782 173.734 40.3887 180.859C40.3887 181.134 40.2788 181.514 40.2538 181.789C25.8722 219.666 52.8663 263.17 83.8279 284.907C97.8746 294.767 115.074 299.614 132.164 299.299H132.359C134.934 299.339 137.494 299.271 140.04 299.094C149.639 298.394 158.963 296.096 168.208 293.312C179.051 290.069 189.775 286.137 200.609 283.383C204.411 282.414 208.234 281.479 212.067 280.605C213.206 280.372 214.359 280.217 215.52 280.14C230.481 279.136 242.134 291.723 233.179 307.084Z" fill="#D7E8F0"/>
<path d="M144.146 350.913L150.722 360.218C150.722 360.218 190.513 361.767 212.29 380.046C216.318 383.429 213.909 390 208.652 390C207.334 390.004 206.057 389.54 205.049 388.691C199.908 384.373 180.264 370.801 135.831 370.392C92.5363 369.987 75.9312 383.384 71.339 388.266C70.8148 388.818 70.1836 389.256 69.4846 389.554C68.785 389.852 68.0314 390.004 67.2714 390H66.4169C61.0201 390 58.7364 383.184 62.9989 379.876C81.1781 365.739 121.929 361.232 121.929 361.232L128.885 350.738" fill="white"/>
<path d="M320.246 299.319C320.246 299.319 332.434 310.897 328.631 346.791C328.355 349.354 327.463 351.812 326.033 353.956L324.709 355.955C322.538 359.207 319.263 361.564 315.489 362.591C307.529 364.765 293.088 369.802 284.168 379.346C280.4 383.389 283.203 389.975 288.73 389.975C289.761 389.978 290.776 389.726 291.685 389.241C292.595 388.756 293.37 388.054 293.942 387.197C297.575 381.73 308.573 370.122 335.103 370.367C365.025 370.641 377.078 382.539 380.94 387.666C381.474 388.381 382.167 388.962 382.964 389.363C383.761 389.764 384.641 389.973 385.533 389.975C386.651 389.972 387.744 389.644 388.679 389.03C389.613 388.415 390.348 387.541 390.793 386.516C391.238 385.49 391.374 384.356 391.184 383.254C390.995 382.152 390.488 381.129 389.725 380.311C378.057 367.633 363.786 362.906 355.91 361.152C351.954 360.299 348.459 357.998 346.111 354.701C344.314 352.157 343.292 349.148 343.168 346.036C342.728 334.908 342.498 307.894 350.039 299.329" fill="white"/>
<path d="M165.019 293.327C186.451 282.924 209.712 276.098 232.584 269.671C255.6 263.205 278.841 257.564 302.152 252.262C311.467 250.148 320.866 248.264 330.136 245.881" stroke="black" stroke-width="4.11" stroke-miterlimit="10"/>
<path d="M185.126 213.35H185.141H185.151" stroke="black" stroke-width="4.11" stroke-miterlimit="10"/>
<path d="M182.724 211.996C181.38 213.325 176.582 220.426 175.378 221.7C168.763 228.79 161.734 235.485 154.331 241.748C152.467 243.297 150.493 244.896 148.414 246.515C148.004 246.83 147.58 247.16 147.155 247.475C133.063 258.168 114.674 268.462 97.6843 261.866C97.2345 261.701 96.7948 261.511 96.3601 261.316C70.3005 249.648 52.0864 220.426 50.4973 192.218C50.4424 191.298 50.4124 190.384 50.4024 189.479C50.2625 181.769 51.4018 174.058 58.7974 169.991" stroke="black" stroke-width="4.11" stroke-miterlimit="10"/>
<path d="M40.3827 181.689L40.4876 180.869C42.1467 167.567 23.2579 163.08 18.7756 175.717C8.21188 205.54 -3.6011 269.941 61.75 324.509C103.93 359.743 172.219 359.988 214.239 324.394C220.086 319.442 226.137 313.75 230.03 307.079C239.879 290.209 224.838 276.682 207.873 280.835" stroke="black" stroke-width="4.11" stroke-miterlimit="10"/>
<path d="M144.146 350.913L150.722 360.218C150.722 360.218 190.513 361.767 212.29 380.046C216.318 383.429 213.909 390 208.652 390C207.334 390.004 206.057 389.54 205.049 388.691C199.908 384.373 180.264 370.801 135.831 370.392C92.5363 369.987 75.9312 383.384 71.339 388.266C70.8148 388.818 70.1836 389.256 69.4846 389.554C68.785 389.852 68.0314 390.004 67.2714 390H66.4169C61.0201 390 58.7364 383.184 62.9989 379.876C81.1781 365.739 121.929 361.232 121.929 361.232L128.885 350.738" stroke="black" stroke-width="4.11" stroke-miterlimit="10"/>
<path d="M121.929 214.045C138.609 209.547 145.48 186.016 148.249 170.196" stroke="black" stroke-width="4.11" stroke-miterlimit="10"/>
<path d="M106.249 188.765C110.883 188.158 115.284 186.373 119.03 183.58C122.778 180.788 125.746 177.081 127.651 172.814C128.05 171.965 128.244 171.035 128.218 170.098C128.192 169.16 127.947 168.242 127.501 167.417C125.682 164.049 122.969 160.147 123.614 156.109C124.078 153.261 126.422 151.257 129.11 150.612C130.473 150.255 131.908 150.279 133.258 150.682C134.067 150.912 134.815 151.318 135.448 151.872C136.08 152.426 136.581 153.113 136.916 153.885C137.57 155.419 136.791 156.939 135.587 157.938C134.382 158.937 132.973 159.292 131.504 159.692C131.314 159.747 130.794 159.857 130.22 159.967" stroke="black" stroke-width="4.11" stroke-miterlimit="10"/>
<path d="M330.116 245.871C330.116 245.871 362.996 238.985 369.173 229.066C370.331 227.257 371.052 225.204 371.282 223.069" stroke="black" stroke-width="4.11" stroke-miterlimit="10"/>
<path d="M168.321 228.931C225.672 222.839 290.404 223.739 290.404 223.739H326.732C329.08 223.742 331.42 223.467 333.703 222.919C339.28 221.59 350.273 218.677 358.998 214.564C364.914 211.771 371.815 216.248 371.311 222.784C371.311 222.864 371.311 222.949 371.281 223.044C372.433 223.045 373.569 223.323 374.592 223.855C375.614 224.388 376.492 225.159 377.154 226.103C377.815 227.048 378.238 228.138 378.388 229.281C378.539 230.423 378.411 231.586 378.017 232.668C365.764 266.343 330.115 265.289 330.115 265.289C325.558 265.424 321.01 265.604 316.448 265.839C276.257 267.793 236.421 273.434 197.424 283.393C186.59 286.147 175.867 290.074 165.023 293.322C155.779 296.116 146.439 298.399 136.84 299.099C118.271 300.443 99.2223 295.646 83.9164 284.912C50.3913 261.386 21.5386 212.336 44.7647 172.519C52.9648 158.468 71.5338 154.62 84.4761 164.524C102.73 178.491 117.312 205.7 124.792 221.75" stroke="black" stroke-width="4.11" stroke-miterlimit="10"/>
<path d="M377.257 299.319H297.444" stroke="black" stroke-width="4.11" stroke-miterlimit="10"/>
<path d="M281.334 283.198C281.346 278.926 283.048 274.832 286.069 271.811C289.089 268.789 293.183 267.086 297.455 267.073H377.277C381.55 267.084 385.645 268.787 388.667 271.809C391.688 274.83 393.391 278.925 393.403 283.198" stroke="black" stroke-width="4.11" stroke-miterlimit="10"/>
<path d="M394.972 288.915C394.976 290.283 394.709 291.638 394.188 292.902C393.666 294.167 392.899 295.315 391.932 296.282C390.964 297.249 389.815 298.015 388.55 298.536C387.286 299.057 385.931 299.323 384.563 299.319H290.119C287.755 299.095 285.573 297.953 284.042 296.137C282.512 294.321 281.755 291.978 281.934 289.61C282.114 287.242 283.215 285.039 285.002 283.475C286.788 281.91 289.117 281.11 291.489 281.245H385.932C387.609 281.242 389.261 281.645 390.748 282.421C392.234 283.196 393.51 284.32 394.467 285.697C394.801 286.737 394.972 287.823 394.972 288.915Z" fill="#D7E8F0"/>
<path d="M394.972 288.915C394.976 290.283 394.709 291.638 394.187 292.902C393.666 294.166 392.899 295.315 391.931 296.282C390.964 297.249 389.815 298.015 388.55 298.536C387.286 299.058 385.931 299.323 384.563 299.319H290.119C288.733 299.349 287.355 299.102 286.066 298.593C284.777 298.084 283.603 297.322 282.612 296.353C281.621 295.383 280.834 294.226 280.296 292.948C279.759 291.67 279.482 290.299 279.482 288.913C279.482 287.526 279.759 286.154 280.296 284.876C280.834 283.599 281.621 282.441 282.612 281.472C283.603 280.503 284.777 279.741 286.066 279.232C287.355 278.723 288.733 278.476 290.119 278.506H384.563C386.761 278.505 388.904 279.2 390.684 280.492C392.463 281.784 393.787 283.606 394.467 285.697C394.801 286.737 394.972 287.823 394.972 288.915Z" stroke="black" stroke-width="4.11" stroke-miterlimit="10"/>
<path d="M148.07 169.826L147.88 171.43C147.793 172.158 147.443 172.829 146.895 173.316C146.347 173.803 145.64 174.072 144.907 174.073H134.528C133.795 174.072 133.087 173.803 132.539 173.316C131.992 172.829 131.641 172.158 131.555 171.43L130.215 159.937C130.79 159.827 131.31 159.717 131.5 159.662C132.969 159.262 134.393 158.922 135.582 157.908C136.771 156.894 137.581 155.409 136.911 153.855C136.577 153.084 136.075 152.396 135.443 151.842C134.81 151.288 134.063 150.882 133.254 150.652C131.903 150.249 130.469 150.225 129.106 150.582L128.791 147.844C128.745 147.426 128.787 147.002 128.915 146.601C129.044 146.2 129.255 145.831 129.535 145.517C129.816 145.202 130.159 144.951 130.543 144.779C130.927 144.606 131.343 144.517 131.764 144.516H147.69C148.11 144.517 148.526 144.608 148.909 144.78C149.293 144.953 149.636 145.204 149.916 145.518C150.196 145.832 150.406 146.201 150.534 146.602C150.662 147.003 150.704 147.426 150.658 147.844L150.288 150.967" stroke="black" stroke-width="4.11" stroke-miterlimit="10"/>
<path d="M149.453 158.108L149.438 158.218" stroke="black" stroke-width="4.11" stroke-miterlimit="10"/>
<path d="M148.673 164.709V164.664" stroke="black" stroke-width="4.11" stroke-miterlimit="10"/>
<path d="M148.823 164.709C148.779 164.701 148.733 164.701 148.688 164.709C148.625 164.702 148.562 164.702 148.499 164.709C147.851 164.711 147.228 164.957 146.753 165.396C146.277 165.836 145.985 166.439 145.932 167.084C145.88 167.73 146.073 168.371 146.471 168.882C146.869 169.393 147.445 169.735 148.084 169.841C148.359 169.896 148.643 169.896 148.918 169.841C150.166 169.641 151.304 169.012 152.136 168.062C153.245 166.238 154.016 164.229 154.41 162.13C154.417 162.109 154.417 162.086 154.41 162.065C154.715 160.519 154.831 158.942 154.755 157.368C154.755 156.694 154.67 156.024 154.59 155.369C154.438 154.274 153.937 153.257 153.162 152.468C152.387 151.679 151.38 151.16 150.288 150.987C150.233 150.987 150.168 150.987 150.113 150.957C148.014 150.697 145.071 151.492 144.526 153.86C144.026 155.999 146.345 157.833 148.249 157.998C148.249 157.998 148.748 158.063 149.453 158.108C150.862 158.203 153.206 158.188 154.755 157.368C154.983 157.25 155.197 157.108 155.394 156.944" stroke="black" stroke-width="4.11" stroke-miterlimit="10"/>
<path d="M151.012 158.223H150.668H148.004H146.83C146.036 158.225 145.273 158.532 144.698 159.079C144.123 159.626 143.779 160.373 143.737 161.166C143.698 161.937 143.946 162.694 144.433 163.292C144.921 163.89 145.613 164.286 146.375 164.404C149.823 164.959 153.761 165.074 154.435 161.986" stroke="black" stroke-width="4.11" stroke-miterlimit="10"/>
<path d="M320.246 299.319C320.246 299.319 332.434 310.897 328.631 346.791C328.355 349.354 327.463 351.812 326.033 353.956L324.709 355.955C322.538 359.207 319.263 361.564 315.489 362.591C307.529 364.765 293.088 369.802 284.168 379.346C280.4 383.389 283.203 389.975 288.73 389.975C289.761 389.978 290.776 389.726 291.685 389.241C292.595 388.756 293.37 388.054 293.942 387.197C297.575 381.73 308.573 370.122 335.103 370.367C365.025 370.641 377.078 382.539 380.94 387.666C381.474 388.381 382.167 388.962 382.964 389.363C383.761 389.764 384.641 389.973 385.533 389.975C386.651 389.972 387.744 389.644 388.679 389.03C389.613 388.415 390.348 387.541 390.793 386.516C391.238 385.49 391.374 384.356 391.184 383.254C390.995 382.152 390.488 381.129 389.725 380.311C378.057 367.633 363.786 362.906 355.91 361.152C351.954 360.299 348.459 357.998 346.111 354.701C344.314 352.157 343.292 349.148 343.168 346.036C342.728 334.908 342.498 307.894 350.039 299.329" stroke="black" stroke-width="4.11" stroke-miterlimit="10"/>
<path d="M294.91 215.424V216.233C294.91 221.775 290.443 222.729 286.585 222.824L211.925 224.563C208.652 224.643 205.898 221.785 205.828 218.207V218.057C205.828 214.559 208.407 211.636 211.635 211.561C211.635 211.561 253.405 210.382 285.746 209.492C286.365 211.451 287.865 212.96 289.743 214.144C291.301 215.075 293.1 215.521 294.91 215.424Z" stroke="black" stroke-width="4.11" stroke-miterlimit="10"/>
<path d="M334.598 136.421C334.602 137.332 334.393 138.232 333.988 139.049L300.598 207.498C300.206 208.293 299.646 208.993 298.955 209.548C298.264 210.102 297.461 210.5 296.6 210.712C295.222 211.065 293.762 210.916 292.483 210.292C291.457 209.787 290.595 209.004 289.993 208.032C289.391 207.06 289.075 205.938 289.08 204.795C289.082 204.514 289.102 204.234 289.14 203.956C289.229 203.336 289.414 202.734 289.69 202.172L323.075 133.712C323.678 132.484 324.679 131.496 325.916 130.909C327.152 130.322 328.55 130.172 329.884 130.482C331.217 130.792 332.405 131.545 333.256 132.616C334.107 133.689 334.569 135.017 334.568 136.386L334.598 136.421Z" stroke="black" stroke-width="4.11" stroke-miterlimit="10"/>
<path d="M64.2793 129.665C64.2393 129.525 64.1843 129.39 64.1393 129.255C64.0943 129.12 64.0293 128.965 63.9893 128.815" stroke="black" stroke-width="4.11" stroke-linecap="round" stroke-linejoin="round"/>
<path d="M64.2781 129.67L65.3025 128.64L67.2613 126.656" stroke="black" stroke-width="4.11" stroke-linecap="round" stroke-linejoin="round"/>
<path d="M75.8062 132.378C75.8062 132.378 77.1204 136.301 82.1424 136.566" stroke="black" stroke-width="4.11" stroke-miterlimit="10"/>
<path d="M53.4705 141.568C48.9732 143.841 43.8712 138.924 44.226 134.872C44.4559 132.093 43.8262 130.174 41.7725 128.161C41.6375 128.026 41.5126 127.886 41.3927 127.751C40.6106 126.9 40.1024 125.834 39.933 124.691C39.7636 123.548 39.9415 122.38 40.4432 121.34C41.3777 119.166 43.3915 117.892 41.9923 115.548C41.3782 114.535 40.9295 113.43 40.6631 112.275C40.3838 110.744 40.4362 109.171 40.8165 107.661C41.1963 106.152 41.8954 104.742 42.8668 103.525C44.9256 101.027 48.2786 101.716 51.0319 100.842C54.345 99.7874 55.8941 96.2245 59.372 95.1302C61.111 94.5855 62.725 94.8304 64.464 95.2251C65.9281 95.5699 67.3972 95.9547 68.8214 96.4044C70.2455 96.8542 71.5448 97.2389 72.9689 96.8142C74.8328 96.2695 76.2669 94.5555 78.2957 94.5405C80.3245 94.5256 81.8836 95.7198 82.7931 97.3888C84.2322 100.007 84.2422 103.815 82.888 106.074C81.4888 108.412 78.5606 109.402 76.0421 109.906C72.824 110.566 69.496 110.741 66.2379 111.031L64.344 111.495C63.6235 111.719 63.0208 112.219 62.6685 112.886C62.3167 113.553 62.2433 114.333 62.4652 115.053C63.637 119.086 65.249 122.977 67.2723 126.656" stroke="black" stroke-width="4.11" stroke-miterlimit="10"/>
<path d="M67.2628 142.142C67.2628 142.142 77.1769 149.403 82.8286 145.4C88.4802 141.398 85.2871 129.665 85.2871 129.665" stroke="black" stroke-width="4.11" stroke-linecap="round" stroke-linejoin="round"/>
<path d="M137.316 139.504C137.316 139.504 133.103 136.656 135.782 133.747C138.46 130.839 134.892 127.001 134.892 127.001" stroke="black" stroke-width="4.11" stroke-miterlimit="10"/>
<path d="M141.203 139.999C141.203 139.999 143.991 138.115 142.202 136.186C140.413 134.257 142.797 131.688 142.797 131.688" stroke="black" stroke-width="4.11" stroke-miterlimit="10"/>
<path d="M160.417 112.855C190.753 112.855 215.345 88.2628 215.345 57.9274C215.345 27.5919 190.753 3 160.417 3C130.081 3 105.49 27.5919 105.49 57.9274C105.49 88.2628 130.081 112.855 160.417 112.855Z" stroke="#CCDDE2" stroke-width="4.11" stroke-miterlimit="10"/>
<path d="M160.415 88.0944C177.077 88.0944 190.583 74.5879 190.583 57.9273C190.583 41.2662 177.077 27.7603 160.415 27.7603C143.755 27.7603 130.248 41.2662 130.248 57.9273C130.248 74.5879 143.755 88.0944 160.415 88.0944Z" stroke="#CCDDE2" stroke-width="4.11" stroke-miterlimit="10"/>
<path d="M160.418 63.0992C163.274 63.0992 165.589 60.7836 165.589 57.9273C165.589 55.071 163.274 52.7554 160.418 52.7554C157.561 52.7554 155.246 55.071 155.246 57.9273C155.246 60.7836 157.561 63.0992 160.418 63.0992Z" stroke="#CCDDE2" stroke-width="4.11" stroke-miterlimit="10"/>
<path d="M171.125 40.6576L163.139 53.5299" stroke="#CCDDE2" stroke-width="4.11" stroke-miterlimit="10"/>
<path d="M160.417 27.7603V33.1271" stroke="#CCDDE2" stroke-width="4.11" stroke-miterlimit="10"/>
<path d="M190.584 57.9274H185.497" stroke="#CCDDE2" stroke-width="4.11" stroke-miterlimit="10"/>
<path d="M160.417 88.0994V82.8825" stroke="#CCDDE2" stroke-width="4.11" stroke-miterlimit="10"/>
<path d="M130.245 57.9274H134.832" stroke="#CCDDE2" stroke-width="4.11" stroke-miterlimit="10"/>
<path d="M211.507 37.7344C211.507 37.7344 230.261 95.7399 302.453 92.6067C326.439 89.6085 354.987 92.6067 380.407 126.087C419.049 177.017 403.533 233.752 385.973 269.766" stroke="#CCDDE2" stroke-width="4.11" stroke-miterlimit="10"/>
<path d="M21.2294 389.975H452.733" stroke="black" stroke-width="4.11" stroke-miterlimit="10"/>
</svg>
