<svg width="395" height="60" viewBox="0 0 395 60" fill="none" xmlns="http://www.w3.org/2000/svg">
<path d="M0.736084 46V0.559998H17.2481C22.1974 0.559998 26.3361 1.584 29.6641 3.632C32.9921 5.63733 35.4881 8.368 37.1521 11.824C38.8161 15.2373 39.6481 19.0347 39.6481 23.216C39.6481 27.824 38.7308 31.8347 36.8961 35.248C35.0614 38.6613 32.4588 41.3067 29.0881 43.184C25.7601 45.0613 21.8134 46 17.2481 46H0.736084ZM30.7521 23.216C30.7521 20.272 30.2188 17.6907 29.1521 15.472C28.0854 13.2107 26.5494 11.4613 24.5441 10.224C22.5388 8.944 20.1068 8.304 17.2481 8.304H9.56808V38.256H17.2481C20.1494 38.256 22.6028 37.616 24.6081 36.336C26.6134 35.0133 28.1281 33.2213 29.1521 30.96C30.2188 28.656 30.7521 26.0747 30.7521 23.216Z" fill="white"/>
<path d="M42.9751 36.08C42.9751 33.904 43.5724 32.0053 44.7671 30.384C46.0044 28.72 47.7111 27.44 49.8871 26.544C52.0631 25.648 54.5591 25.2 57.3751 25.2C58.7831 25.2 60.2124 25.3067 61.6631 25.52C63.1138 25.7333 64.3724 26.0747 65.4391 26.544V24.752C65.4391 22.6187 64.7991 20.976 63.5191 19.824C62.2817 18.672 60.4258 18.096 57.9511 18.096C56.1164 18.096 54.3671 18.416 52.7031 19.056C51.0391 19.696 49.2898 20.6347 47.4551 21.872L44.7031 16.24C46.9217 14.7893 49.1831 13.7013 51.4871 12.976C53.8338 12.2507 56.2871 11.888 58.8471 11.888C63.6258 11.888 67.3378 13.0827 69.9831 15.472C72.6711 17.8613 74.0151 21.2747 74.0151 25.712V36.4C74.0151 37.296 74.1644 37.936 74.4631 38.32C74.8044 38.704 75.3378 38.9387 76.0631 39.024V46C75.2951 46.128 74.5911 46.2347 73.9511 46.32C73.3538 46.4053 72.8418 46.448 72.4151 46.448C70.7084 46.448 69.4071 46.064 68.5111 45.296C67.6578 44.528 67.1244 43.5893 66.9111 42.48L66.7191 40.752C65.2684 42.6293 63.4551 44.08 61.2791 45.104C59.1031 46.128 56.8844 46.64 54.6231 46.64C52.4044 46.64 50.3991 46.192 48.6071 45.296C46.8578 44.3573 45.4711 43.0987 44.4471 41.52C43.4657 39.8987 42.9751 38.0853 42.9751 36.08ZM63.8391 37.808C64.3084 37.296 64.6924 36.784 64.9911 36.272C65.2897 35.76 65.4391 35.2907 65.4391 34.864V31.472C64.4151 31.0453 63.3058 30.7253 62.1111 30.512C60.9164 30.256 59.7858 30.128 58.7191 30.128C56.5004 30.128 54.6658 30.6187 53.2151 31.6C51.8071 32.5387 51.1031 33.7973 51.1031 35.376C51.1031 36.2293 51.3378 37.04 51.8071 37.808C52.2764 38.576 52.9591 39.1947 53.8551 39.664C54.7511 40.1333 55.8178 40.368 57.0551 40.368C58.3351 40.368 59.5938 40.1333 60.8311 39.664C62.0684 39.152 63.0711 38.5333 63.8391 37.808Z" fill="white"/>
<path d="M101.813 44.272C101.087 44.5707 100.213 44.912 99.1886 45.296C98.1646 45.68 97.0553 45.9787 95.8606 46.192C94.7086 46.448 93.5353 46.576 92.3406 46.576C90.7619 46.576 89.3113 46.2987 87.9886 45.744C86.6659 45.1893 85.5992 44.3147 84.7886 43.12C84.0206 41.8827 83.6366 40.2827 83.6366 38.32V19.056H79.2206V12.464H83.6366V1.584H92.2126V12.464H99.2526V19.056H92.2126V35.44C92.2553 36.592 92.5753 37.424 93.1726 37.936C93.7699 38.448 94.5166 38.704 95.4126 38.704C96.3086 38.704 97.1832 38.5547 98.0366 38.256C98.8899 37.9573 99.5726 37.7013 100.085 37.488L101.813 44.272Z" fill="white"/>
<path d="M103.975 36.08C103.975 33.904 104.572 32.0053 105.767 30.384C107.004 28.72 108.711 27.44 110.887 26.544C113.063 25.648 115.559 25.2 118.375 25.2C119.783 25.2 121.212 25.3067 122.663 25.52C124.114 25.7333 125.372 26.0747 126.439 26.544V24.752C126.439 22.6187 125.799 20.976 124.519 19.824C123.282 18.672 121.426 18.096 118.951 18.096C117.116 18.096 115.367 18.416 113.703 19.056C112.039 19.696 110.29 20.6347 108.455 21.872L105.703 16.24C107.922 14.7893 110.183 13.7013 112.487 12.976C114.834 12.2507 117.287 11.888 119.847 11.888C124.626 11.888 128.338 13.0827 130.983 15.472C133.671 17.8613 135.015 21.2747 135.015 25.712V36.4C135.015 37.296 135.164 37.936 135.463 38.32C135.804 38.704 136.338 38.9387 137.063 39.024V46C136.295 46.128 135.591 46.2347 134.951 46.32C134.354 46.4053 133.842 46.448 133.415 46.448C131.708 46.448 130.407 46.064 129.511 45.296C128.658 44.528 128.124 43.5893 127.911 42.48L127.719 40.752C126.268 42.6293 124.455 44.08 122.279 45.104C120.103 46.128 117.884 46.64 115.623 46.64C113.404 46.64 111.399 46.192 109.607 45.296C107.858 44.3573 106.471 43.0987 105.447 41.52C104.466 39.8987 103.975 38.0853 103.975 36.08ZM124.839 37.808C125.308 37.296 125.692 36.784 125.991 36.272C126.29 35.76 126.439 35.2907 126.439 34.864V31.472C125.415 31.0453 124.306 30.7253 123.111 30.512C121.916 30.256 120.786 30.128 119.719 30.128C117.5 30.128 115.666 30.6187 114.215 31.6C112.807 32.5387 112.103 33.7973 112.103 35.376C112.103 36.2293 112.338 37.04 112.807 37.808C113.276 38.576 113.959 39.1947 114.855 39.664C115.751 40.1333 116.818 40.368 118.055 40.368C119.335 40.368 120.594 40.1333 121.831 39.664C123.068 39.152 124.071 38.5333 124.839 37.808Z" fill="white"/>
<path d="M177.077 4.528H160.885V46H156.405V4.528H140.213V0.559998H177.077V4.528Z" fill="white"/>
<path d="M193.878 16.496C190.976 16.5813 188.416 17.392 186.198 18.928C184.022 20.464 182.486 22.576 181.59 25.264V46H177.238V12.656H181.334V20.656C182.486 18.3093 184 16.4107 185.878 14.96C187.798 13.5093 189.824 12.6987 191.958 12.528C192.384 12.4853 192.747 12.464 193.046 12.464C193.387 12.464 193.664 12.4853 193.878 12.528V16.496Z" fill="white"/>
<path d="M196.862 36.4C196.862 34.3093 197.459 32.5173 198.654 31.024C199.849 29.488 201.491 28.3147 203.582 27.504C205.715 26.6507 208.169 26.224 210.942 26.224C212.563 26.224 214.249 26.352 215.998 26.608C217.747 26.864 219.305 27.248 220.67 27.76V24.944C220.67 22.128 219.838 19.888 218.174 18.224C216.51 16.56 214.206 15.728 211.262 15.728C209.47 15.728 207.699 16.0693 205.95 16.752C204.243 17.392 202.451 18.352 200.574 19.632L198.91 16.56C201.086 15.0667 203.219 13.9573 205.31 13.232C207.401 12.464 209.534 12.08 211.71 12.08C215.806 12.08 219.049 13.2533 221.438 15.6C223.827 17.9467 225.022 21.1893 225.022 25.328V40.752C225.022 41.3493 225.15 41.7973 225.406 42.096C225.662 42.352 226.067 42.5013 226.622 42.544V46C226.153 46.0427 225.747 46.0853 225.406 46.128C225.065 46.1707 224.809 46.1707 224.638 46.128C223.571 46.0853 222.761 45.744 222.206 45.104C221.651 44.464 221.353 43.7813 221.31 43.056L221.246 40.624C219.753 42.544 217.811 44.0373 215.422 45.104C213.033 46.128 210.601 46.64 208.126 46.64C205.993 46.64 204.051 46.192 202.302 45.296C200.595 44.3573 199.251 43.12 198.27 41.584C197.331 40.0053 196.862 38.2773 196.862 36.4ZM219.198 38.96C219.667 38.3627 220.03 37.7867 220.286 37.232C220.542 36.6773 220.67 36.1867 220.67 35.76V30.896C219.219 30.3413 217.705 29.9147 216.126 29.616C214.59 29.3173 213.033 29.168 211.454 29.168C208.339 29.168 205.822 29.7867 203.902 31.024C201.982 32.2613 201.022 33.9467 201.022 36.08C201.022 37.3173 201.342 38.4907 201.982 39.6C202.622 40.6667 203.561 41.5627 204.798 42.288C206.035 42.9707 207.486 43.312 209.15 43.312C211.241 43.312 213.182 42.9067 214.974 42.096C216.809 41.2853 218.217 40.24 219.198 38.96Z" fill="white"/>
<path d="M284.025 46H279.673V27.376C279.673 23.4933 279.054 20.6347 277.817 18.8C276.58 16.9653 274.745 16.048 272.313 16.048C269.796 16.048 267.534 16.944 265.529 18.736C263.566 20.528 262.18 22.832 261.369 25.648V46H257.017V27.376C257.017 23.4507 256.42 20.592 255.225 18.8C254.03 16.9653 252.196 16.048 249.721 16.048C247.246 16.048 245.006 16.9227 243.001 18.672C240.996 20.4213 239.588 22.7253 238.777 25.584V46H234.425V12.656H238.393V20.208C239.801 17.6053 241.593 15.6 243.769 14.192C245.988 12.784 248.441 12.08 251.129 12.08C253.902 12.08 256.142 12.8693 257.849 14.448C259.556 16.0267 260.601 18.096 260.985 20.656C262.521 17.84 264.356 15.7067 266.489 14.256C268.665 12.8053 271.118 12.08 273.849 12.08C275.726 12.08 277.305 12.4213 278.585 13.104C279.908 13.7867 280.953 14.768 281.721 16.048C282.532 17.2853 283.108 18.8 283.449 20.592C283.833 22.3413 284.025 24.304 284.025 26.48V46Z" fill="white"/>
<path d="M310.262 46.64C307.488 46.64 304.992 45.9147 302.774 44.464C300.598 43.0133 298.87 41.2213 297.59 39.088V59.632H293.238V12.656H297.142V19.12C298.464 17.0293 300.235 15.344 302.454 14.064C304.672 12.7413 307.04 12.08 309.558 12.08C311.862 12.08 313.974 12.5707 315.894 13.552C317.814 14.4907 319.478 15.7707 320.886 17.392C322.294 19.0133 323.382 20.8693 324.15 22.96C324.96 25.008 325.366 27.1413 325.366 29.36C325.366 32.4747 324.726 35.3547 323.446 38C322.208 40.6027 320.459 42.6933 318.198 44.272C315.936 45.8507 313.291 46.64 310.262 46.64ZM309.046 42.8C310.88 42.8 312.523 42.4373 313.974 41.712C315.424 40.944 316.662 39.92 317.686 38.64C318.752 37.36 319.563 35.9307 320.118 34.352C320.672 32.7307 320.95 31.0667 320.95 29.36C320.95 27.568 320.63 25.8613 319.99 24.24C319.392 22.6187 318.518 21.1893 317.366 19.952C316.214 18.7147 314.891 17.7333 313.398 17.008C311.904 16.2827 310.283 15.92 308.534 15.92C307.424 15.92 306.272 16.1333 305.078 16.56C303.883 16.9867 302.731 17.6053 301.622 18.416C300.555 19.184 299.659 20.0587 298.934 21.04C298.208 22.0213 297.76 23.0667 297.59 24.176V34.416C298.272 35.9947 299.19 37.424 300.342 38.704C301.494 39.9413 302.816 40.944 304.31 41.712C305.846 42.4373 307.424 42.8 309.046 42.8Z" fill="white"/>
<path d="M346.946 46.64C344.556 46.64 342.338 46.192 340.29 45.296C338.284 44.3573 336.535 43.0987 335.042 41.52C333.591 39.8987 332.46 38.064 331.65 36.016C330.839 33.9253 330.434 31.728 330.434 29.424C330.434 27.0347 330.839 24.816 331.65 22.768C332.46 20.6773 333.612 18.8427 335.106 17.264C336.599 15.6427 338.348 14.384 340.354 13.488C342.402 12.5493 344.62 12.08 347.01 12.08C349.399 12.08 351.596 12.5493 353.602 13.488C355.607 14.384 357.356 15.6427 358.85 17.264C360.343 18.8427 361.495 20.6773 362.306 22.768C363.116 24.816 363.522 27.0347 363.522 29.424C363.522 31.728 363.116 33.9253 362.306 36.016C361.495 38.064 360.343 39.8987 358.85 41.52C357.399 43.0987 355.65 44.3573 353.602 45.296C351.596 46.192 349.378 46.64 346.946 46.64ZM334.85 29.488C334.85 31.9627 335.383 34.224 336.45 36.272C337.559 38.2773 339.031 39.8773 340.866 41.072C342.7 42.224 344.727 42.8 346.946 42.8C349.164 42.8 351.191 42.2027 353.026 41.008C354.86 39.8133 356.332 38.192 357.442 36.144C358.551 34.0533 359.106 31.792 359.106 29.36C359.106 26.8853 358.551 24.624 357.442 22.576C356.332 20.528 354.86 18.9067 353.026 17.712C351.191 16.5173 349.164 15.92 346.946 15.92C344.727 15.92 342.7 16.5387 340.866 17.776C339.074 19.0133 337.623 20.656 336.514 22.704C335.404 24.7093 334.85 26.9707 334.85 29.488Z" fill="white"/>
<path d="M381.744 46.64C379.013 46.64 376.475 46.192 374.128 45.296C371.781 44.4 369.755 43.0347 368.048 41.2L369.84 38.128C371.717 39.8773 373.595 41.1573 375.472 41.968C377.392 42.736 379.419 43.12 381.552 43.12C384.155 43.12 386.267 42.608 387.888 41.584C389.509 40.5173 390.32 39.0027 390.32 37.04C390.32 35.7173 389.915 34.7147 389.104 34.032C388.336 33.3067 387.205 32.7307 385.712 32.304C384.261 31.8347 382.512 31.344 380.464 30.832C378.16 30.192 376.219 29.5307 374.64 28.848C373.104 28.1227 371.931 27.2267 371.12 26.16C370.352 25.0507 369.968 23.6213 369.968 21.872C369.968 19.696 370.501 17.904 371.568 16.496C372.677 15.0453 374.171 13.9573 376.048 13.232C377.968 12.464 380.101 12.08 382.448 12.08C385.008 12.08 387.269 12.4853 389.232 13.296C391.195 14.1067 392.795 15.2373 394.032 16.688L391.92 19.632C390.725 18.2667 389.296 17.264 387.632 16.624C386.011 15.9413 384.197 15.6 382.192 15.6C380.827 15.6 379.525 15.792 378.288 16.176C377.051 16.5173 376.027 17.1147 375.216 17.968C374.448 18.7787 374.064 19.9093 374.064 21.36C374.064 22.5547 374.363 23.4933 374.96 24.176C375.557 24.816 376.453 25.3707 377.648 25.84C378.843 26.2667 380.315 26.736 382.064 27.248C384.581 27.9307 386.779 28.6347 388.656 29.36C390.533 30.0427 391.984 30.9387 393.008 32.048C394.032 33.1573 394.544 34.7147 394.544 36.72C394.544 39.8347 393.371 42.2667 391.024 44.016C388.677 45.7653 385.584 46.64 381.744 46.64Z" fill="white"/>
</svg>
